<svg width="572" height="596" viewBox="0 0 572 596" fill="none" xmlns="http://www.w3.org/2000/svg">
<path d="M124.083 313.868L124.062 313.798C122.088 307.215 120.149 302.434 118.115 299.067C116.08 295.697 113.925 293.706 111.507 292.77C109.09 291.834 106.491 291.984 103.637 292.725C100.79 293.464 97.6266 294.809 94.0654 296.321C86.5052 299.532 77.0073 303.564 64.3691 304.569L63.1396 304.656C36.5903 306.183 20.9641 294.951 11.9492 281.16C2.91068 267.333 0.500009 250.898 0.5 242.073C0.499998 202.675 30.7514 179.695 62.7871 179.607C76.7544 179.607 86.8603 184.474 94.7891 188.295C98.1111 189.896 101.086 191.331 103.79 192.121C106.504 192.914 109.012 193.077 111.38 192.067C113.74 191.061 115.873 188.926 117.927 185.317C119.981 181.708 121.984 176.575 124.063 169.496L124.083 169.427V1.1123L276.992 0.5C285.707 0.653216 291.696 1.93548 295.682 3.94629C299.646 5.946 301.629 8.66412 302.368 11.752C303.114 14.8691 302.608 18.425 301.454 22.0986C300.302 25.7667 298.522 29.4982 296.779 32.9512C292.68 41.0718 286.607 52.0921 287.224 64.6475C288.505 90.7067 299.586 105.49 312.636 113.747C325.248 121.727 339.646 123.579 348.669 123.728L349.524 123.736C365.411 123.839 381.999 117.99 394.156 107.098C406.325 96.195 414.048 80.243 412.176 60.1953C410.913 46.6703 407.744 36.7739 404.503 29.0908C402.966 25.4476 401.253 21.8968 400.03 18.5361C398.809 15.1779 398.128 12.1328 398.601 9.55078C399.064 7.02039 400.652 4.85357 404.185 3.26172C407.746 1.65677 413.254 0.653453 421.471 0.5L570.202 0.878906L571.009 5.11328L570.581 5.11523L570.086 5.11719L570.083 5.6123L569.083 174.282C567.02 181.297 565.049 186.324 563.058 189.823C561.059 193.335 559.067 195.261 556.987 196.147C554.915 197.031 552.667 196.92 550.07 196.161C547.463 195.399 544.569 194.006 541.224 192.394C533.287 188.569 523.001 183.607 508.787 183.607H508.786C476.278 183.696 445.5 207.047 445.5 247.073C445.5 256.025 447.936 272.67 457.112 286.708C466.313 300.783 482.271 312.203 509.196 310.655H509.199C522.64 309.811 532.645 305.559 540.456 302.242C544.039 300.72 547.129 299.409 549.889 298.692C552.641 297.978 555.003 297.873 557.146 298.702C559.287 299.531 561.292 301.326 563.26 304.584C565.223 307.834 567.126 312.5 569.083 319.014V472.824H421.519L421.458 472.84C414.352 474.634 409.238 476.562 405.68 478.705C402.114 480.853 400.08 483.236 399.198 485.941C398.32 488.636 398.614 491.566 399.53 494.753C400.446 497.936 402.005 501.441 403.717 505.294C407.082 512.867 411.084 521.882 412.298 532.889C415.049 559.849 391.568 595.679 350.068 595.505H350.066C346.463 595.505 331.511 595.502 317.084 587.716C302.697 579.952 288.765 564.414 287.222 533.19C286.635 521.226 291.282 511.417 295.184 503.195C296.847 499.69 298.386 496.451 299.292 493.479C300.199 490.504 300.496 487.727 299.607 485.163C298.715 482.591 296.662 480.324 293.066 478.299C289.476 476.277 284.308 474.473 277.111 472.837L277.056 472.824H124.083V313.868Z" fill="white" stroke="#E6EFFF"/>
</svg>
