<svg width="50" height="50" viewBox="0 0 50 50" fill="none" xmlns="http://www.w3.org/2000/svg">
<path d="M25 50C38.807 50 50 38.807 50 25C50 11.1929 38.807 0 25 0C11.1929 0 0 11.1929 0 25C0 28.9993 0.93905 32.779 2.60865 36.1312C3.05235 37.022 3.20002 38.0402 2.9428 39.0015L1.45378 44.5667C0.807375 46.9825 3.01752 49.1925 5.43337 48.5463L10.9985 47.0573C11.9598 46.8 12.978 46.9477 13.8688 47.3912C17.2209 49.061 21.0007 50 25 50Z" fill="#0C5ADB"/>
<path d="M32.5 25C32.5 26.3807 33.6192 27.5 35 27.5C36.3808 27.5 37.5 26.3807 37.5 25C37.5 23.6193 36.3808 22.5 35 22.5C33.6192 22.5 32.5 23.6193 32.5 25ZM22.5 25C22.5 26.3807 23.6193 27.5 25 27.5C26.3807 27.5 27.5 26.3807 27.5 25C27.5 23.6193 26.3807 22.5 25 22.5C23.6193 22.5 22.5 23.6193 22.5 25ZM12.5 25C12.5 26.3807 13.6193 27.5 15 27.5C16.3807 27.5 17.5 26.3807 17.5 25C17.5 23.6193 16.3807 22.5 15 22.5C13.6193 22.5 12.5 23.6193 12.5 25Z" fill="white"/>
</svg>
