<svg width="50" height="50" viewBox="0 0 50 50" fill="none" xmlns="http://www.w3.org/2000/svg">
<path d="M23.8094 32.1427C28.7405 32.1427 32.738 28.1119 32.738 23.1397C32.738 18.1675 28.7405 14.1367 23.8094 14.1367C18.8783 14.1367 14.8809 18.1675 14.8809 23.1397C14.8809 28.1119 18.8783 32.1427 23.8094 32.1427Z" fill="#0C5ADB"/>
<path d="M24.9256 0C11.1596 0 0 11.1929 0 25C0 38.8071 11.1596 50 24.9256 50C38.6916 50 49.8512 38.8071 49.8512 25C49.8512 11.1929 38.6916 0 24.9256 0ZM39.4195 39.5372C38.4927 40.4668 36.9901 40.4668 36.0633 39.5372L31.2075 34.667C28.9973 36.2212 26.3072 37.1354 23.404 37.1398C15.9696 37.1511 9.85846 31.1347 9.73841 23.6791C9.61378 15.9406 15.8933 9.64238 23.6086 9.76738C31.042 9.88779 37.0405 16.0172 37.0293 23.4737C37.0249 26.3855 36.1134 29.0838 34.5638 31.3006L39.4195 36.1708C40.3464 37.1004 40.3464 38.6076 39.4195 39.5372Z" fill="#0C5ADB"/>
</svg>
