<svg width="50" height="50" viewBox="0 0 50 50" fill="none" xmlns="http://www.w3.org/2000/svg">
<path fill-rule="evenodd" clip-rule="evenodd" d="M25 50C38.8075 50 50 38.8075 50 25C50 11.1925 38.8075 0 25 0C11.1925 0 0 11.1925 0 25C0 38.8075 11.1925 50 25 50ZM33.84 16.16C34.3094 15.6912 34.9459 15.4281 35.6093 15.4286C36.2727 15.4291 36.9087 15.6931 37.3775 16.1625C37.8463 16.6319 38.1094 17.2684 38.1089 17.9318C38.1084 18.5952 37.8444 19.2312 37.375 19.7L23.2425 33.8325L23.2325 33.8425C23.0009 34.0755 22.7255 34.2603 22.4221 34.3865C22.1188 34.5126 21.7935 34.5776 21.465 34.5776C21.1365 34.5776 20.8112 34.5126 20.5079 34.3865C20.2045 34.2603 19.9291 34.0755 19.6975 33.8425L19.6875 33.8325L12.625 26.77C12.3862 26.5394 12.1958 26.2635 12.0647 25.9585C11.9337 25.6535 11.8648 25.3255 11.8619 24.9935C11.859 24.6616 11.9222 24.3324 12.0479 24.0251C12.1736 23.7179 12.3593 23.4387 12.594 23.204C12.8287 22.9693 13.1079 22.7836 13.4151 22.6579C13.7224 22.5322 14.0516 22.469 14.3835 22.4719C14.7155 22.4748 15.0435 22.5437 15.3485 22.6747C15.6535 22.8058 15.9294 22.9962 16.16 23.235L21.465 28.5375L33.84 16.1625V16.16Z" fill="#0C5ADB"/>
</svg>
