<svg width="1920" height="821" viewBox="0 0 1920 821" fill="none" xmlns="http://www.w3.org/2000/svg">
<g style="mix-blend-mode:multiply" filter="url(#filter0_i_2_1953)">
<path d="M-2.5 0.976583C-36 4.47658 -57 1.47658 -57 1.47658V696.5C-57 696.5 364.999 703.499 724.999 703.499C1028.11 703.499 1526.44 696.5 1540.41 696.5C1569.88 696.5 1565.51 713.479 1558.61 727.742C1555.01 735.173 1550.51 744.47 1549.2 756.915C1549.2 810.083 1594.5 820.083 1612.28 820.083C1651.99 820.083 1675.16 789.568 1675.25 757.296C1675.25 743.206 1670.33 733.01 1666.51 725.077C1660.08 711.741 1651.41 696.5 1685 696.5C1699.94 696.5 1772.64 696.5 1875.41 696.5C1841 696.5 1990 691.5 1990 691.5V4.47654C1990 4.47654 1199.82 4.50906 1159.82 4.50906C1119.82 4.50906 1071.82 4.00955 1030.32 4.50955C988.825 5.00955 881.586 4.50955 881.586 4.50955C851.325 4.50955 856.67 19.7503 863.097 33.0862C866.92 41.0193 871.833 51.2149 871.833 65.3055C871.746 97.5777 848.58 128.093 808.868 128.093C791.091 128.093 742.71 118.399 745.785 64.9246C746.623 51.5765 750.844 41.6392 754.16 33.8318C760.228 19.543 763.325 4.47659 736.999 4.50955C736.999 4.50955 31 -2.52342 -2.5 0.976583Z" fill="url(#paint0_linear_2_1953)"/>
</g>
<defs>
<filter id="filter0_i_2_1953" x="-57" y="0" width="2047" height="826.083" filterUnits="userSpaceOnUse" color-interpolation-filters="sRGB">
<feFlood flood-opacity="0" result="BackgroundImageFix"/>
<feBlend mode="normal" in="SourceGraphic" in2="BackgroundImageFix" result="shape"/>
<feColorMatrix in="SourceAlpha" type="matrix" values="0 0 0 0 0 0 0 0 0 0 0 0 0 0 0 0 0 0 127 0" result="hardAlpha"/>
<feOffset dy="6"/>
<feGaussianBlur stdDeviation="30"/>
<feComposite in2="hardAlpha" operator="arithmetic" k2="-1" k3="1"/>
<feColorMatrix type="matrix" values="0 0 0 0 0.0468641 0 0 0 0 0.19139 0 0 0 0 0.433517 0 0 0 0.9 0"/>
<feBlend mode="normal" in2="shape" result="effect1_innerShadow_2_1953"/>
</filter>
<linearGradient id="paint0_linear_2_1953" x1="268.067" y1="182.32" x2="1918.07" y2="847.629" gradientUnits="userSpaceOnUse">
<stop stop-color="#0C5ADB"/>
<stop offset="1" stop-color="#003996"/>
</linearGradient>
</defs>
</svg>
