<svg width="1140" height="711" viewBox="0 0 1140 711" fill="none" xmlns="http://www.w3.org/2000/svg">
<g clip-path="url(#clip0_1333_17)">
<g filter="url(#filter0_i_1333_17)">
<path d="M327.605 37.972C329.455 5.82694 300.358 0 289.667 0C265.784 0 251.852 18.3435 251.799 37.7431C251.799 46.2133 254.754 52.3422 257.053 57.1109C260.827 64.939 260.969 73.9386 247.101 73.9386H0V637C0 637 237.012 638.803 269.147 638.803C301.282 638.803 331 637 331 637C342.119 637 345.984 646.162 342.119 654.178C339.82 658.947 336.865 665.076 336.865 673.546C334.308 694.107 350.85 711.289 374.733 711.289C385.424 711.289 414.521 704.861 412.672 672.716C412.672 663.836 409.913 657.607 407.826 652.894C404.415 645.193 404.673 637.902 417.956 637C424.484 636.557 444.994 636.84 474.162 637.242C504.34 637.658 517.832 638.803 517.832 638.803C517.832 638.803 592.627 638.184 607.99 638.152V637.952H685.406C692.86 637.928 700.438 637.903 708.09 637.878C723.623 633.171 721.795 628.87 718.165 620.325C716.17 615.632 713.632 609.659 713.128 601.635C711.279 569.49 740.376 563.663 751.067 563.663C774.95 563.663 788.882 582.006 788.935 601.406C788.935 609.876 785.98 616.005 783.681 620.773C779.914 628.585 777.908 632.747 793.535 637.571C870.104 637.281 1140 637 1140 637V73.9386C1140 73.9386 905.74 73.3374 847.404 73.3374C789.067 73.3374 786.511 73.9386 786.511 73.9386C769.283 75.4414 772.785 82.9382 776.559 90.7663C778.858 95.535 781.813 101.664 781.813 110.134C781.76 129.534 767.829 147.877 743.945 147.877C733.254 147.877 704.157 142.05 706.007 109.905C706.511 101.881 709.049 95.9077 711.043 91.2144C714.602 82.8374 715.457 75.4414 701.863 73.9386C701.863 73.9386 520.471 69.1296 438.679 69.1296C356.888 69.1296 331.749 73.9386 331.749 73.9386C315.056 73.9386 318.441 66.1607 321.861 58.3029C322.099 57.7557 322.337 57.2081 322.569 56.6627C324.563 51.9695 327.101 45.996 327.605 37.972Z" fill="url(#paint0_linear_1333_17)"/>
</g>
</g>
<defs>
<filter id="filter0_i_1333_17" x="0" y="0" width="1140" height="714.289" filterUnits="userSpaceOnUse" color-interpolation-filters="sRGB">
<feFlood flood-opacity="0" result="BackgroundImageFix"/>
<feBlend mode="normal" in="SourceGraphic" in2="BackgroundImageFix" result="shape"/>
<feColorMatrix in="SourceAlpha" type="matrix" values="0 0 0 0 0 0 0 0 0 0 0 0 0 0 0 0 0 0 127 0" result="hardAlpha"/>
<feOffset dy="3"/>
<feGaussianBlur stdDeviation="15"/>
<feComposite in2="hardAlpha" operator="arithmetic" k2="-1" k3="1"/>
<feColorMatrix type="matrix" values="0 0 0 0 0.0468641 0 0 0 0 0.19139 0 0 0 0 0.433517 0 0 0 0.8 0"/>
<feBlend mode="normal" in2="shape" result="effect1_innerShadow_1333_17"/>
</filter>
<linearGradient id="paint0_linear_1333_17" x1="121" y1="278" x2="751.01" y2="493.268" gradientUnits="userSpaceOnUse">
<stop stop-color="#0C5ADB"/>
<stop offset="1" stop-color="#003996"/>
</linearGradient>
<clipPath id="clip0_1333_17">
<rect width="1140" height="711" fill="white"/>
</clipPath>
</defs>
</svg>
