<svg width="32" height="33" viewBox="0 0 32 33" fill="none" xmlns="http://www.w3.org/2000/svg">
<mask id="mask0_3_252" style="mask-type:luminance" maskUnits="userSpaceOnUse" x="0" y="0" width="32" height="33">
<path d="M32 0.616211H0V32.6987H32V0.616211Z" fill="white"/>
</mask>
<g mask="url(#mask0_3_252)">
<path d="M15.9324 32.6929H16.06C22.4136 32.6929 26.1015 32.0516 28.7138 29.5089C31.3774 26.8118 31.9924 23.0894 31.9924 16.7443V16.5649C31.9924 10.2217 31.3774 6.52418 28.7138 3.80021C26.1034 1.25759 22.3888 0.616211 16.0619 0.616211H15.9343C9.58078 0.616211 5.89087 1.25759 3.27864 3.80021C0.614983 6.49745 0 10.2217 0 16.5649V16.7443C0 23.0875 0.614983 26.785 3.27864 29.5089C5.86614 32.0516 9.58078 32.6929 15.9324 32.6929Z" fill="#202022"/>
<path d="M28.1838 16.4111C28.1838 16.289 28.0848 16.1878 27.9629 16.1821C23.59 16.0161 20.9288 15.4568 19.0669 13.5902C17.2012 11.7198 16.6453 9.0496 16.4797 4.65596C16.4759 4.53381 16.375 4.43457 16.2513 4.43457H15.7411C15.6192 4.43457 15.5183 4.53381 15.5126 4.65596C15.347 9.04769 14.7911 11.7198 12.9255 13.5902C11.0617 15.4588 8.40224 16.0161 4.02942 16.1821C3.90758 16.1859 3.80859 16.2871 3.80859 16.4111V16.9227C3.80859 17.0448 3.90758 17.146 4.02942 17.1517C8.40224 17.3177 11.0636 17.877 12.9255 19.7436C14.7873 21.6102 15.3432 24.2728 15.5107 28.6491C15.5145 28.7713 15.6154 28.8706 15.7392 28.8706H16.2513C16.3731 28.8706 16.474 28.7713 16.4797 28.6491C16.6472 24.2728 17.2031 21.6102 19.065 19.7436C20.9288 17.8751 23.5881 17.3177 27.961 17.1517C28.0829 17.1479 28.1819 17.0467 28.1819 16.9227V16.4111H28.1838Z" fill="white"/>
</g>
</svg>
