<svg width="66" height="39" viewBox="0 0 66 39" fill="none" xmlns="http://www.w3.org/2000/svg">
<path d="M64.6954 17.8117C60.8559 12.7587 56.367 8.40726 50.8779 5.15552C44.2369 1.22593 37.0982 -0.570591 29.3671 0.159393C24.0581 0.661849 19.152 2.36831 14.5683 5.05597C9.02703 8.30772 4.49544 12.6734 0.617997 17.7501C-0.20679 18.8309 -0.206786 20.0064 0.622742 21.0919C3.98351 25.4955 7.84199 29.3825 12.4684 32.4683C19.5928 37.2227 27.3714 39.5027 35.9748 38.6874C40.4021 38.2655 44.5735 36.9904 48.5315 34.9853C54.3287 32.0512 59.1257 27.8846 63.2307 22.8932C63.9891 21.9688 64.6006 20.9213 65.2785 19.9258V18.9067C65.0841 18.537 64.9372 18.1246 64.6907 17.7975L64.6954 17.8117ZM32.2348 33.1461C24.7501 33.0039 18.806 26.6711 18.9435 18.9873C19.0809 11.5452 25.4185 5.58213 33.0549 5.71485C40.5348 5.84758 46.4885 12.1852 46.351 19.869C46.2183 27.2873 39.8333 33.2883 32.2301 33.1461H32.2348Z" fill="#0C5ADB"/>
</svg>
