<svg width="53" height="50" viewBox="0 0 53 50" fill="none" xmlns="http://www.w3.org/2000/svg">
<path d="M26.551 0.00444389C33.5185 0.00444389 40.4859 -0.00555486 47.4534 0.00444389C50.6618 0.00944327 53.1345 2.58412 52.9943 5.75373C52.9343 7.13356 52.3837 8.31341 51.4577 9.33328C45.6515 15.7025 39.8603 22.0817 34.044 28.4409C33.5735 28.9558 33.3633 29.4608 33.3683 30.1657C33.4034 33.4103 33.3733 36.6549 33.3933 39.9045C33.3933 40.7244 33.1231 41.3593 32.4774 41.8692C29.314 44.3839 26.1606 46.9136 22.9972 49.4333C22.1313 50.1232 21.2303 50.1832 20.4645 49.6133C19.8539 49.1633 19.6436 48.5384 19.6436 47.7935C19.6536 41.8942 19.6436 35.995 19.6636 30.0957C19.6636 29.4358 19.4784 28.9658 19.033 28.4759C13.2017 22.1017 7.3855 15.7175 1.57929 9.32328C-0.0224262 7.5585 -0.457895 5.51376 0.513145 3.31403C1.48919 1.09431 3.29613 0.0144428 5.70871 0.00944338C12.6561 -0.000555372 19.6036 0.00944338 26.551 0.00944338V0.00444389Z" fill="#0C5ADB"/>
</svg>
