<svg width="50" height="50" viewBox="0 0 50 50" fill="none" xmlns="http://www.w3.org/2000/svg">
<path d="M49.9924 22.2267C49.9924 21.3568 49.5624 20.8319 48.7176 20.6169C48.0577 20.4469 47.3878 20.312 46.7329 20.122C46.5679 20.077 46.3629 19.897 46.3229 19.747C45.783 17.5874 44.9231 15.5627 43.7933 13.643C43.7133 13.503 43.7283 13.238 43.8083 13.088C44.1033 12.5281 44.4532 11.9982 44.7682 11.4483C45.2531 10.6184 45.1881 10.0085 44.5182 9.3336C43.2334 8.03879 41.9486 6.74899 40.6538 5.46918C40.0039 4.82428 39.384 4.75929 38.5791 5.21922C38.0292 5.53417 37.4993 5.88412 36.9393 6.17907C36.7794 6.26406 36.4944 6.28406 36.3444 6.19407C34.4397 5.07924 32.43 4.22937 30.2853 3.68445C30.1204 3.64445 29.9304 3.41949 29.8804 3.24451C29.7054 2.6846 29.5704 2.11468 29.4605 1.53977C29.3155 0.794881 28.9505 0.259961 28.2206 0H21.7766C21.0517 0.259961 20.6818 0.79988 20.5418 1.54477C20.4318 2.13468 20.2818 2.71959 20.1119 3.29451C20.0669 3.44448 19.9019 3.63445 19.7619 3.66945C17.5872 4.21437 15.5475 5.07424 13.6228 6.21407C13.4929 6.28906 13.2479 6.27906 13.1079 6.20407C12.538 5.89412 11.9881 5.54417 11.4282 5.21922C10.6083 4.74429 9.99339 4.81928 9.31849 5.48918C8.03868 6.75899 6.76387 8.0338 5.48906 9.3186C4.81916 9.9935 4.74917 10.6084 5.2241 11.4283C5.54905 11.9882 5.904 12.5381 6.20895 13.108C6.28394 13.243 6.29393 13.493 6.21394 13.623C5.07411 15.5477 4.21424 17.5874 3.66933 19.762C3.63433 19.907 3.43937 20.067 3.28939 20.112C2.72948 20.277 2.15955 20.4169 1.58964 20.5269C0.83475 20.6719 0.269843 21.0268 0.00488281 21.7767V28.2208C0.274842 28.9707 0.839754 29.3306 1.59464 29.4706C2.10456 29.5656 2.60449 29.7255 3.11442 29.8155C3.47936 29.8805 3.62934 30.0605 3.74433 30.4204C4.13927 31.6403 4.59419 32.8401 5.02912 34.0449C5.07412 34.1649 5.14411 34.2749 5.2241 34.4198C5.36408 34.2899 5.48406 34.1799 5.59404 34.0699C7.64873 32.0052 9.69842 29.9405 11.7631 27.8858C11.9981 27.6558 12.0781 27.4359 12.0331 27.1159C11.7681 25.2612 11.7931 23.4265 12.298 21.6068C13.3179 17.9123 15.5076 15.1227 18.892 13.363C22.8764 11.2933 26.9708 11.2433 30.9802 13.278C34.9546 15.2977 37.3143 18.5922 37.9942 23.0065C38.6141 27.0259 37.5642 30.6254 34.8996 33.6999C32.76 36.1696 30.0154 37.5744 26.7709 37.9993C25.4561 38.1693 24.1513 38.2193 22.8364 37.9993C22.6465 37.9693 22.3715 38.0393 22.2365 38.1693C20.0619 40.319 17.9022 42.4836 15.7375 44.6483C15.7025 44.6833 15.6775 44.7233 15.5975 44.8383C16.3974 45.1582 17.1623 45.4932 17.9522 45.7781C18.5321 45.9881 19.132 46.1381 19.7269 46.298C19.9769 46.363 20.1019 46.473 20.1569 46.743C20.2868 47.3979 20.4568 48.0378 20.6218 48.6877C20.8418 49.5626 21.3567 49.9875 22.2515 49.9925C24.0913 50.0025 25.926 50.0025 27.7657 49.9925C28.6706 49.9925 29.1855 49.5726 29.4055 48.6977C29.5704 48.0528 29.7004 47.3979 29.8904 46.763C29.9454 46.588 30.1304 46.363 30.2953 46.323C32.44 45.7831 34.4497 44.9333 36.3544 43.8134C36.5044 43.7234 36.7894 43.7434 36.9493 43.8234C37.5093 44.1184 38.0392 44.4633 38.5891 44.7833C39.394 45.2482 40.0139 45.1832 40.6638 44.5383C41.9736 43.2435 43.2734 41.9487 44.5632 40.6389C45.1931 40.004 45.2581 39.3891 44.8082 38.6042C44.4932 38.0543 44.1732 37.5094 43.8333 36.9745C43.6883 36.7445 43.6583 36.5695 43.8133 36.3195C44.9481 34.4448 45.793 32.4451 46.3079 30.3155C46.3729 30.0505 46.4979 29.9155 46.7829 29.8605C47.4378 29.7355 48.0827 29.5606 48.7276 29.3956C49.5724 29.1806 50.0024 28.6557 50.0024 27.7908C50.0124 25.9361 50.0124 24.0814 50.0024 22.2267H49.9924Z" fill="#0C5ADB"/>
<path d="M21.9067 34.7598C23.7264 35.3597 25.5662 35.3647 27.4409 34.9748C33.13 33.785 36.3296 27.7759 34.9098 22.3467C34.7298 21.6518 34.1349 21.1669 33.48 21.2719C33.08 21.3368 32.6451 21.5568 32.3451 21.8368C31.1703 22.9366 30.0805 24.1314 28.8807 25.2013C27.7009 26.2511 25.8861 26.0361 24.8613 24.8363C23.8414 23.6415 23.9214 21.9817 25.0912 20.7819C26.1361 19.7121 27.2159 18.6722 28.2608 17.6024C29.1306 16.7075 28.8207 15.4027 27.6508 15.1028C25.4112 14.5329 23.2015 14.6478 21.0568 15.5427C16.1676 17.5874 13.6679 22.9416 15.2127 27.9608C15.3227 28.3258 15.2527 28.5408 14.9878 28.8057C10.6634 33.1101 6.36405 37.4344 2.0347 41.7288C1.05984 42.6986 0.204969 43.7035 0 45.1183V46.0931C0.0299955 46.2031 0.0649866 46.3081 0.0899828 46.4181C0.479924 48.1278 1.48478 49.2976 3.17953 49.7926C4.96426 50.3175 6.47403 49.7526 7.75384 48.4778C12.2532 43.9834 16.7475 39.4841 21.2418 34.9848C21.4318 34.7948 21.5768 34.6498 21.9017 34.7598H21.9067Z" fill="#0C5ADB"/>
</svg>
