<svg width="36" height="50" viewBox="0 0 36 50" fill="none" xmlns="http://www.w3.org/2000/svg">
<path d="M1.27123 19.5506C1.55121 19.6356 1.85616 19.6456 2.15114 19.6456C7.3908 19.6506 12.6305 19.6456 17.8701 19.6456C23.0548 19.6456 28.2395 19.6456 33.4241 19.6456C33.6291 19.6456 33.8341 19.6556 34.0391 19.6356C34.744 19.5656 35.264 19.2106 35.549 18.5607C35.834 17.9057 35.724 17.2858 35.289 16.7308C35.164 16.5708 35.009 16.4308 34.869 16.2858C29.7193 11.1362 24.5697 5.98149 19.415 0.83183C18.3101 -0.273097 17.4101 -0.278097 16.3102 0.821831C11.1456 5.98649 5.9809 11.1512 0.816238 16.3158C0.671247 16.4608 0.521274 16.6008 0.396282 16.7608C-0.383666 17.7507 0.0662784 19.1906 1.2762 19.5506H1.27123Z" fill="#0C5ADB"/>
<path d="M35.5343 31.4156C35.2393 30.7657 34.7143 30.4257 34.0094 30.3657C33.8244 30.3507 33.6394 30.3607 33.4544 30.3607C28.2497 30.3607 23.0501 30.3607 17.8454 30.3607C14.4056 30.3607 10.9709 30.3607 7.53108 30.3607C5.6362 30.3607 3.74133 30.3607 1.84645 30.3607C1.06651 30.3607 0.481551 30.7207 0.166572 31.4306C-0.163406 32.1756 0.0115711 32.8455 0.561535 33.4305C0.651529 33.5255 0.746517 33.6155 0.836511 33.7055C5.98617 38.8551 11.1359 44.0098 16.2905 49.1595C17.4154 50.2844 18.3004 50.2794 19.4353 49.1495C24.575 44.0098 29.7096 38.8751 34.8493 33.7355C34.9943 33.5905 35.1443 33.4505 35.2743 33.2905C35.7292 32.7205 35.8442 32.0856 35.5393 31.4156H35.5343Z" fill="#0C5ADB"/>
</svg>
