<svg width="56" height="50" viewBox="0 0 56 50" fill="none" xmlns="http://www.w3.org/2000/svg">
<path d="M15.9747 34.8276C15.9752 36.2763 15.5845 37.698 14.8439 38.9416C14.1034 40.1851 13.0409 41.204 11.7693 41.8897V46.2069C11.7693 47.2129 11.3712 48.1777 10.6624 48.889C9.95362 49.6004 8.99232 50 7.98997 50C6.98762 50 6.02632 49.6004 5.31756 48.889C4.60879 48.1777 4.2106 47.2129 4.2106 46.2069V41.8897C2.9381 41.2046 1.87451 40.1861 1.13304 38.9425C0.391576 37.6989 0 36.2768 0 34.8276C0 33.3783 0.391576 31.9562 1.13304 30.7126C1.87451 29.469 2.9381 28.4505 4.2106 27.7655V3.7931C4.2106 2.78711 4.60879 1.82232 5.31756 1.11097C6.02632 0.399629 6.98762 0 7.98997 0C8.99232 0 9.95362 0.399629 10.6624 1.11097C11.3712 1.82232 11.7693 2.78711 11.7693 3.7931V27.7655C13.0399 28.4524 14.1016 29.4715 14.842 30.7147C15.5824 31.958 15.9738 33.3792 15.9747 34.8276ZM31.7794 7.62759V3.7931C31.7794 2.78711 31.3812 1.82232 30.6724 1.11097C29.9636 0.399629 29.0023 0 28 0C26.9976 0 26.0364 0.399629 25.3276 1.11097C24.6188 1.82232 24.2206 2.78711 24.2206 3.7931V7.62759C22.9515 8.31375 21.8912 9.33192 21.1521 10.5741C20.4131 11.8162 20.0228 13.236 20.0228 14.6828C20.0228 16.1295 20.4131 17.5493 21.1521 18.7915C21.8912 20.0336 22.9515 21.0518 24.2206 21.7379V46.2069C24.2206 47.2129 24.6188 48.1777 25.3276 48.889C26.0364 49.6004 26.9976 50 28 50C29.0023 50 29.9636 49.6004 30.6724 48.889C31.3812 48.1777 31.7794 47.2129 31.7794 46.2069V21.7379C33.0485 21.0518 34.1088 20.0336 34.8479 18.7915C35.5869 17.5493 35.9772 16.1295 35.9772 14.6828C35.9772 13.236 35.5869 11.8162 34.8479 10.5741C34.1088 9.33192 33.0485 8.31375 31.7794 7.62759ZM51.7894 22.2483V3.7931C51.7894 2.78711 51.3912 1.82232 50.6824 1.11097C49.9737 0.399629 49.0124 0 48.01 0C47.0077 0 46.0464 0.399629 45.3376 1.11097C44.6288 1.82232 44.2307 2.78711 44.2307 3.7931V22.2483C42.9582 22.9333 41.8946 23.9518 41.1531 25.1954C40.4116 26.439 40.0201 27.8611 40.0201 29.3103C40.0201 30.7596 40.4116 32.1817 41.1531 33.4253C41.8946 34.6689 42.9582 35.6874 44.2307 36.3724V46.2069C44.2307 47.2129 44.6288 48.1777 45.3376 48.889C46.0464 49.6004 47.0077 50 48.01 50C49.0124 50 49.9737 49.6004 50.6824 48.889C51.3912 48.1777 51.7894 47.2129 51.7894 46.2069V36.3724C53.0619 35.6874 54.1255 34.6689 54.867 33.4253C55.6084 32.1817 56 30.7596 56 29.3103C56 27.8611 55.6084 26.439 54.867 25.1954C54.1255 23.9518 53.0619 22.9333 51.7894 22.2483Z" fill="#0C5ADB"/>
</svg>
