<svg width="36" height="50" viewBox="0 0 36 50" fill="none" xmlns="http://www.w3.org/2000/svg">
<path d="M0.0151559 25.0738C0.0151559 21.8838 -0.0248727 18.6888 0.0251753 15.4987C0.145291 7.67368 6.03596 1.08363 13.8284 0.283623C17.2067 -0.0663796 20.655 -0.216381 24.0132 0.578625C30.3994 2.08864 35.0939 7.42368 35.8746 13.9437C35.9297 14.4087 35.9747 14.8837 35.9747 15.3537C35.9797 21.8488 36.0348 28.3438 35.9647 34.8339C35.8846 42.1489 30.2442 48.619 23.0123 49.769C21.9062 49.944 20.7751 50.009 19.6541 49.999C17.4069 49.974 15.1347 50.054 12.9226 49.739C6.64154 48.839 1.27136 43.419 0.265396 37.1389C0.105243 36.1389 0.035185 35.1189 0.0251753 34.1089C-0.00485351 31.0989 0.0151559 28.0888 0.0151559 25.0738ZM16.2458 32.4139C16.0306 32.2139 15.8954 32.1039 15.7753 31.9839C14.6442 30.8589 13.5181 29.7239 12.382 28.6038C11.5963 27.8288 10.5152 27.7788 9.80456 28.4688C9.06885 29.1838 9.09889 30.2739 9.90466 31.0789C12.1468 33.3289 14.389 35.5739 16.6411 37.8089C17.502 38.6639 18.4979 38.6539 19.3688 37.7889C21.6059 35.5639 23.838 33.3289 26.0702 31.0939C26.881 30.2789 26.926 29.2088 26.2003 28.4838C25.4846 27.7688 24.3936 27.8238 23.5878 28.6238C22.4567 29.7489 21.3306 30.8789 20.1996 32.0089C20.0794 32.1289 19.9493 32.2289 19.7491 32.4039V31.7039C19.7491 25.7738 19.7491 19.8438 19.7491 13.9137C19.7491 13.7137 19.7591 13.5137 19.7391 13.3137C19.6791 12.5987 19.1536 11.9737 18.4629 11.7787C17.2968 11.4537 16.2458 12.3137 16.2458 13.6137C16.2458 19.6538 16.2458 25.6938 16.2458 31.7289C16.2458 31.9189 16.2458 32.1089 16.2458 32.4089V32.4139Z" fill="#0C5ADB"/>
</svg>
