<svg width="50" height="50" viewBox="0 0 50 50" fill="none" xmlns="http://www.w3.org/2000/svg">
<path d="M26.5573 50H23.627C23.467 49.97 23.3119 49.935 23.1519 49.91C22.0618 49.75 20.9517 49.66 19.8765 49.42C13.4158 47.9799 8.2802 44.5098 4.49477 39.1046C0.994366 34.0995 -0.465802 28.5093 0.129267 22.4341C0.614322 17.4439 2.48954 12.9838 5.71991 9.15365C10.4955 3.48846 16.6212 0.408362 24.027 0.03335C28.9576 -0.216658 33.5981 0.93838 37.8186 3.51846C44.2593 7.45859 48.2098 13.1588 49.61 20.594C49.785 21.5341 49.87 22.4891 50 23.4341V26.3642C49.96 26.7142 49.92 27.0692 49.88 27.4193C49.4349 31.4794 48.1498 35.2545 45.8745 38.6546C41.8941 44.5898 36.4084 48.2949 29.3576 49.61C28.4325 49.78 27.4974 49.87 26.5673 50H26.5573ZM28.0225 21.9691C28.0225 19.624 28.0225 17.3489 28.0225 15.0738C28.0225 13.9488 28.0475 12.8288 28.0125 11.7037C27.9525 9.62367 26.0122 8.29362 24.077 8.97865C22.9069 9.39366 22.1668 10.4937 22.1618 11.8687C22.1568 15.0588 22.1618 18.249 22.1618 21.4391C22.1618 21.6091 22.1618 21.7791 22.1618 21.9691C21.1417 21.9691 20.2016 21.9691 19.2565 21.9691C16.7812 21.9691 14.3109 21.9541 11.8356 21.9691C9.66036 21.9841 8.2652 23.9291 8.98028 25.9192C9.40033 27.0892 10.5005 27.8193 11.8806 27.8243C15.121 27.8293 18.3564 27.8243 21.5967 27.8243H22.1618C22.1618 28.0493 22.1618 28.2243 22.1618 28.3993C22.1618 30.3694 22.1618 32.3394 22.1618 34.3045C22.1618 35.6245 22.1368 36.9396 22.1668 38.2596C22.2168 40.3447 24.137 41.6847 26.0773 41.0147C27.2724 40.5997 28.0125 39.4997 28.0175 38.0946C28.0225 34.8545 28.0175 31.6194 28.0175 28.3793V27.8243H28.6025C31.5479 27.8243 34.4932 27.8243 37.4386 27.8243C37.7786 27.8243 38.1236 27.8343 38.4637 27.8093C40.4339 27.6443 41.659 25.7542 41.009 23.8941C40.5939 22.6991 39.4938 21.9691 38.0786 21.9691C34.9233 21.9641 31.7629 21.9691 28.6075 21.9691C28.4325 21.9691 28.2525 21.9691 28.0175 21.9691H28.0225Z" fill="#0C5ADB"/>
</svg>
