<svg width="48" height="50" viewBox="0 0 48 50" fill="none" xmlns="http://www.w3.org/2000/svg">
<path d="M8.85944 43.9722C8.90826 44.0111 8.96379 44.0395 9.01287 44.0781C9.27817 44.2831 9.5652 44.4548 9.83854 44.6484C10.4507 45.0865 11.0636 45.5219 11.712 45.8969C11.7324 45.9084 11.7544 45.9167 11.7748 45.9285C12.587 46.3953 13.4167 46.8304 14.2797 47.1944L14.5627 47.3122C14.9634 47.4798 15.3537 47.6421 15.7966 47.7969C16.9388 48.1794 17.9107 48.4439 18.8407 48.6325C19.4351 48.7553 19.9998 48.8479 20.5371 48.9184C20.6192 48.9297 20.7031 48.9324 20.7855 48.9426C21.1616 48.9871 21.5374 49.0308 21.8743 49.0488C22.4999 49.1118 23.1573 49.1432 23.7834 49.1432C37.0963 49.1432 47.9258 38.3138 47.9258 25.0009C47.9258 23.5183 46.7259 22.3184 45.2433 22.3184C43.7607 22.3184 42.5608 23.5183 42.5608 25.0009C42.5608 35.3536 34.1362 43.7782 23.7834 43.7782C23.1702 43.7782 22.5664 43.716 21.9628 43.6567C21.5261 43.6216 21.0545 43.5473 20.5781 43.4665C20.1562 43.3928 19.735 43.3147 19.3209 43.2128C19.015 43.1387 18.7229 43.0551 18.4287 42.9679C17.0279 42.5486 15.6754 41.9909 14.4146 41.265C14.4082 41.2613 14.4014 41.2589 14.395 41.2551C13.91 40.9753 13.4561 40.6459 12.9977 40.324C12.7598 40.1545 12.5108 40.0086 12.2793 39.8267C12.0213 39.6268 11.7882 39.3956 11.5403 39.1824C11.1615 38.8527 10.7753 38.5297 10.4177 38.1745C10.2401 37.9951 10.0859 37.792 9.91526 37.605L14.7199 36.7394C16.1764 36.4749 17.1456 35.0811 16.8835 33.6221C16.6191 32.1655 15.2437 31.1963 13.7662 31.4584L2.56472 33.4781C1.8654 33.6039 1.2444 34.0046 0.838276 34.5889C0.432148 35.1731 0.274954 35.8934 0.400763 36.5954L2.4204 47.7942C2.65619 49.0909 3.78525 50 5.05836 50C5.21555 50 5.37543 49.9869 5.53772 49.9582C6.99431 49.6937 7.96349 48.2998 7.70141 46.8408L6.86447 42.2047C6.88486 42.2246 6.90847 42.2409 6.92885 42.2608C7.60028 42.9113 8.23254 43.481 8.85944 43.9722ZM39.0663 6.02954C39.0191 5.99199 38.9657 5.96463 38.9183 5.92734C38.6398 5.71221 38.3391 5.53141 38.0518 5.32888C37.4528 4.90183 36.8544 4.47531 36.2208 4.10835C36.1744 4.08153 36.1237 4.06248 36.077 4.03592C35.2873 3.5858 34.4839 3.1609 33.6464 2.80761L33.3634 2.68985C32.9626 2.5222 32.5723 2.35991 32.1294 2.20513C30.9846 1.82261 30.0127 1.55543 29.0829 1.36954C28.4912 1.24668 27.9271 1.15413 27.3898 1.08331C27.3079 1.07205 27.2248 1.06963 27.143 1.05917C26.7666 1.01464 26.3905 0.970919 26.0523 0.952946C25.4259 0.889908 24.7684 0.858522 24.1423 0.858522C10.8295 0.858522 0 11.688 0 25.0009C0 26.4835 1.19987 27.6834 2.68248 27.6834C4.16509 27.6834 5.36497 26.4835 5.36497 25.0009C5.36497 14.6481 13.7896 6.22349 24.1423 6.22349C24.7556 6.22349 25.3594 6.28572 25.9629 6.345C26.3997 6.38015 26.8712 6.45445 27.3476 6.53519C27.7699 6.60896 28.1908 6.68702 28.6049 6.78896C28.9107 6.86326 29.2029 6.94695 29.4971 7.03387C31.4564 7.62053 33.2963 8.52533 34.9603 9.69918C35.1848 9.85986 35.4211 9.99774 35.64 10.1697C35.8965 10.3682 36.1279 10.5986 36.3745 10.8103C36.7591 11.145 37.1497 11.4728 37.5164 11.8374C37.6905 12.0139 37.8426 12.2132 38.01 12.397L33.2062 13.2623C31.7496 13.5268 30.7804 14.9206 31.0425 16.3796C31.2783 17.6764 32.4073 18.5854 33.6805 18.5854C33.8376 18.5854 33.9975 18.5723 34.1598 18.5436L45.3613 16.524C46.0606 16.3981 46.6816 15.9974 47.0878 15.4131C47.4939 14.8289 47.6511 14.1086 47.5253 13.4066L45.5056 2.20781C45.2411 0.751223 43.8605 -0.223055 42.3883 0.0441203C40.9317 0.308613 39.9626 1.70243 40.2246 3.16143L41.0618 7.79676C41.0294 7.76458 40.9916 7.73882 40.9588 7.7069C40.3035 7.0741 39.6836 6.51588 39.0663 6.02954Z" fill="#0C5ADB"/>
</svg>
