<svg width="54" height="50" viewBox="0 0 54 50" fill="none" xmlns="http://www.w3.org/2000/svg">
<path d="M31.8145 33.7882C31.2845 32.0483 31.5745 30.4733 32.8695 29.1783C34.1595 27.8833 35.7295 27.5633 37.4744 28.0933C40.8994 29.1283 44.3193 30.1683 47.7393 31.2083C49.0493 31.6033 50.3592 32.0033 51.7242 32.4183V31.7733C51.7242 23.5634 51.7242 15.3485 51.7242 7.13864C51.7242 2.9887 48.7393 0.00374994 44.5793 0.00374994C32.1095 -0.00124998 19.6397 -0.00124998 7.16989 0.00374994C2.97495 0.00374994 0 2.9837 0 7.16864C0 17.3185 0 27.4633 0 37.6132C0 41.8131 2.96995 44.7981 7.15489 44.7981C16.2548 44.7981 25.3546 44.7981 34.4595 44.7981H35.1495C35.0645 44.4981 35.0045 44.2731 34.9395 44.0581C33.8995 40.6381 32.8645 37.2132 31.8245 33.7932L31.8145 33.7882ZM3.39495 11.7386C3.39495 9.8886 3.29495 8.06863 3.42494 6.26366C3.53994 4.71368 5.02992 3.4787 6.5999 3.3687C6.8499 3.3537 7.10489 3.3487 7.35488 3.3487C19.6897 3.3487 32.0245 3.3487 44.3543 3.3387C45.4843 3.3387 46.5043 3.5587 47.3293 4.38368C47.8793 4.93368 48.2993 5.59867 48.3243 6.36865C48.3843 8.14363 48.3443 9.9236 48.3443 11.7386H3.39495Z" fill="#0C5ADB"/>
<path d="M52.2788 35.5042C47.0839 33.9242 41.889 32.3492 36.694 30.7692C36.0141 30.5642 35.3891 30.6042 34.8641 31.1192C34.3191 31.6542 34.2741 32.2942 34.4891 32.9992C36.0741 38.1941 37.649 43.389 39.229 48.584C39.519 49.5289 40.039 49.9789 40.839 49.9989C41.689 50.0239 42.229 49.5989 42.554 48.644C43.2489 46.594 43.9639 44.549 44.6189 42.489C44.8839 41.6491 45.3789 41.1691 46.2189 40.9041C48.2989 40.2441 50.3638 39.5241 52.4288 38.8191C53.2988 38.5241 53.7188 37.9641 53.7088 37.1641C53.6988 36.3341 53.2588 35.8041 52.2788 35.5042Z" fill="#0C5ADB"/>
<path d="M9.11494 6.05969C8.28995 6.03969 7.58996 6.71968 7.58496 7.53966C7.58496 8.32965 8.24995 9.01964 9.04494 9.03964C9.85993 9.06464 10.5699 8.36965 10.5749 7.54966C10.5749 6.74968 9.91992 6.07469 9.11494 6.05469V6.05969Z" fill="#0C5ADB"/>
<path d="M14.3302 6.05862C13.5152 6.06362 12.8603 6.72861 12.8653 7.5486C12.8653 8.36359 13.5253 9.03358 14.3352 9.04358C15.1702 9.05358 15.8402 8.36359 15.8302 7.5186C15.8152 6.69861 15.1552 6.05362 14.3352 6.05862H14.3302Z" fill="#0C5ADB"/>
<path d="M19.6301 6.05871C18.8151 6.04871 18.1451 6.6987 18.1301 7.51369C18.1151 8.35867 18.7901 9.04866 19.6201 9.04366C20.4301 9.03866 21.0901 8.37367 21.0951 7.55368C21.0951 6.7337 20.4451 6.06871 19.6351 6.05871H19.6301Z" fill="#0C5ADB"/>
</svg>
