<svg width="50" height="50" viewBox="0 0 50 50" fill="none" xmlns="http://www.w3.org/2000/svg">
<path fill-rule="evenodd" clip-rule="evenodd" d="M27.7168 48.4694L29.072 46.1797C30.123 44.4037 30.6488 43.5157 31.493 43.0247C32.3372 42.5337 33.4 42.5154 35.526 42.4789C38.6645 42.4247 40.6328 42.2324 42.2835 41.5487C45.3465 40.2799 47.7798 37.8466 49.0485 34.7836C50 32.4866 50 29.5744 50 23.7501V21.2501C50 13.0665 50 8.97466 48.158 5.9688C47.1273 4.28684 45.7132 2.87271 44.0312 1.84201C41.0252 -1.49012e-07 36.9335 0 28.75 0H21.25C13.0664 0 8.97462 -1.49012e-07 5.96877 1.84201C4.28682 2.87271 2.8727 4.28684 1.842 5.9688C-1.49012e-07 8.97466 0 13.0665 0 21.2501V23.7501C0 29.5744 -7.45058e-08 32.4866 0.9515 34.7836C2.22018 37.8466 4.6536 40.2799 7.71645 41.5487C9.36722 42.2324 11.3355 42.4247 14.4739 42.4789C16.5998 42.5154 17.6627 42.5337 18.507 43.0247C19.3512 43.5159 19.8768 44.4037 20.928 46.1797L22.2832 48.4694C23.4912 50.5102 26.5088 50.5102 27.7168 48.4694ZM35 25.0001C36.3807 25.0001 37.5 23.8808 37.5 22.5001C37.5 21.1193 36.3807 20.0001 35 20.0001C33.6193 20.0001 32.5 21.1193 32.5 22.5001C32.5 23.8808 33.6193 25.0001 35 25.0001ZM27.5 22.5001C27.5 23.8808 26.3808 25.0001 25 25.0001C23.6192 25.0001 22.5 23.8808 22.5 22.5001C22.5 21.1193 23.6192 20.0001 25 20.0001C26.3808 20.0001 27.5 21.1193 27.5 22.5001ZM15 25.0001C16.3807 25.0001 17.5 23.8808 17.5 22.5001C17.5 21.1193 16.3807 20.0001 15 20.0001C13.6193 20.0001 12.5 21.1193 12.5 22.5001C12.5 23.8808 13.6193 25.0001 15 25.0001Z" fill="#0C5ADB"/>
</svg>
