<svg width="1140" height="1388" viewBox="0 0 1140 1388" fill="none" xmlns="http://www.w3.org/2000/svg">
<g filter="url(#filter0_i_1333_20)">
<path d="M397.605 37.972C399.455 5.82694 370.358 0 359.667 0C335.784 0 321.852 18.3435 321.799 37.7431C321.799 46.2133 324.754 52.3422 327.053 57.1109C330.827 64.939 330.969 73.9386 317.101 73.9386H0V1313.5C0 1313.5 728.865 1315.3 761 1315.3C793.135 1315.3 822.853 1313.5 822.853 1313.5C833.972 1313.5 837.837 1322.66 833.972 1330.68C831.673 1335.45 828.718 1341.58 828.718 1350.05C826.16 1370.61 842.703 1387.79 866.586 1387.79C877.277 1387.79 906.374 1381.36 904.524 1349.22C904.524 1340.34 901.766 1334.11 899.679 1329.39C896.268 1321.69 896.525 1314.4 909.808 1313.5C916.337 1313.06 936.844 1313.74 966.015 1313.74C982.799 1313.74 1114 1313.5 1140 1313.5V73.9386C1140 73.9386 1015.74 73.3374 957.404 73.3374C899.067 73.3374 896.511 73.9386 896.511 73.9386C879.283 75.4414 882.785 82.9382 886.559 90.7663C888.858 95.535 891.813 101.664 891.813 110.134C891.76 129.534 877.829 147.877 853.945 147.877C843.254 147.877 814.157 142.05 816.007 109.905C816.511 101.881 819.049 95.9077 821.043 91.2144C824.602 82.8374 825.457 75.4414 811.863 73.9386C811.863 73.9386 630.471 69.1296 548.679 69.1296C466.888 69.1296 401.749 73.9386 401.749 73.9386C385.056 73.9386 388.441 66.1607 391.861 58.3029C392.099 57.7557 392.337 57.2081 392.569 56.6627C394.563 51.9695 397.101 45.996 397.605 37.972Z" fill="url(#paint0_linear_1333_20)"/>
</g>
<defs>
<filter id="filter0_i_1333_20" x="0" y="0" width="1140" height="1393.79" filterUnits="userSpaceOnUse" color-interpolation-filters="sRGB">
<feFlood flood-opacity="0" result="BackgroundImageFix"/>
<feBlend mode="normal" in="SourceGraphic" in2="BackgroundImageFix" result="shape"/>
<feColorMatrix in="SourceAlpha" type="matrix" values="0 0 0 0 0 0 0 0 0 0 0 0 0 0 0 0 0 0 127 0" result="hardAlpha"/>
<feOffset dy="6"/>
<feGaussianBlur stdDeviation="15"/>
<feComposite in2="hardAlpha" operator="arithmetic" k2="-1" k3="1"/>
<feColorMatrix type="matrix" values="0 0 0 0 0.0468641 0 0 0 0 0.19139 0 0 0 0 0.433517 0 0 0 0.1 0"/>
<feBlend mode="normal" in2="shape" result="effect1_innerShadow_1333_20"/>
</filter>
<linearGradient id="paint0_linear_1333_20" x1="471" y1="477" x2="915.269" y2="493.99" gradientUnits="userSpaceOnUse">
<stop stop-color="#E7EEFB"/>
<stop offset="1" stop-color="#EEFEFC"/>
</linearGradient>
</defs>
</svg>
