<svg width="375" height="76" viewBox="0 0 375 76" fill="none" xmlns="http://www.w3.org/2000/svg">
<path d="M383.003 4.16695C357.46 4.16696 355.385 4.16585 355.385 4.16585C341.779 9.29564 343.845 13.5758 347.62 21.3967C349.714 25.7336 352.332 31.1592 353.096 38.422C353.096 69.4505 326.73 75.2864 316.385 75.2864C293.274 75.2864 279.793 57.4781 279.742 38.6442C279.742 30.4211 282.601 24.471 284.826 19.8414C288.306 12.6005 290.233 8.59001 277.239 4.16585C277.239 4.16585 259.222 0.159056 231.168 1.16076C203.114 2.16246 179.086 4.16586 179.086 4.16586L-5.44727 4.16582" stroke="#3A77DC"/>
<path d="M316.551 33.1602L316.551 49.1616M316.551 49.1616L310.551 43.1611M316.551 49.1616L322.552 43.1611" stroke="#0C5ADB" stroke-width="2" stroke-linecap="round" stroke-linejoin="round"/>
</svg>
