<svg width="1142" height="77" viewBox="0 0 1142 77" fill="none" xmlns="http://www.w3.org/2000/svg">
<path d="M1 3.00675C1 3.00675 4.05239 0.99995 29.5957 0.999951C55.139 0.999952 72.1678 5.00676 72.1678 5.00676C85.7733 10.1366 83.7073 14.4167 79.9324 22.2377C77.8391 26.5745 75.2205 32.0001 74.4569 39.2629C74.4569 70.2914 100.823 76.1273 111.168 76.1273C134.279 76.1273 147.76 58.319 147.811 39.4851C147.811 31.262 144.952 25.3119 142.727 20.6823C139.247 13.4414 137.32 9.43092 150.313 5.00676C150.313 5.00676 168.331 0.999968 196.385 2.00167C224.439 3.00337 248.467 5.00677 248.467 5.00677L1142 2.00677" stroke="#3A77DC"/>
<path d="M111.001 34L111.001 50.0015M111.001 50.0015L117.002 44.0009M111.001 50.0015L105.001 44.0009" stroke="#0C5ADB" stroke-width="2" stroke-linecap="round" stroke-linejoin="round"/>
</svg>
