<svg width="1140" height="1175" viewBox="0 0 1140 1175" fill="none" xmlns="http://www.w3.org/2000/svg">
<g filter="url(#filter0_i_1245_57)">
<path d="M335.606 1136.32C337.456 1168.46 308.359 1174.29 297.668 1174.29C273.785 1174.29 259.853 1155.95 259.8 1136.55C259.8 1128.08 262.755 1121.95 265.054 1117.18C268.828 1109.35 268.97 1100.35 255.102 1100.35L0.00063875 1100.35L0.000570085 970.5L0.000131706 141.5L9.61651e-05 74.2891C9.61651e-05 74.2891 571.505 72.4859 603.64 72.4859C635.775 72.4859 665.492 74.2891 665.492 74.2891C676.612 74.2891 680.477 65.1275 676.612 57.1109C674.312 52.3422 671.357 46.2133 671.357 37.7432C668.8 17.1822 685.342 5.99145e-05 709.225 6.20024e-05C719.916 6.29371e-05 749.013 6.42817 747.163 38.5733C747.163 47.4532 744.405 53.6827 742.318 58.3951C738.907 66.0969 739.164 73.3874 752.447 74.2891C758.976 74.7324 1084.48 74.0475 1113.65 74.0475C1130.44 74.0475 1114 74.2892 1140 74.2892L1140 141.5L1140 970.5L1140 1100.35C1140 1100.35 829.795 1100.95 771.458 1100.95C713.121 1100.95 710.566 1100.35 710.566 1100.35C693.338 1098.85 696.839 1091.35 700.614 1083.52C702.913 1078.75 705.868 1072.63 705.868 1064.16C705.815 1044.76 691.883 1026.41 668 1026.41C657.309 1026.41 628.212 1032.24 630.062 1064.38C630.566 1072.41 633.104 1078.38 635.098 1083.07C638.657 1091.45 639.512 1098.85 625.918 1100.35C625.918 1100.35 497.001 1105.16 468.681 1105.16C386.889 1105.16 339.75 1100.35 339.75 1100.35C323.057 1100.35 326.442 1108.13 329.862 1115.99C330.1 1116.53 330.338 1117.08 330.57 1117.63C332.564 1122.32 335.102 1128.29 335.606 1136.32Z" fill="url(#paint0_linear_1245_57)"/>
</g>
<defs>
<filter id="filter0_i_1245_57" x="0" y="0.00012207" width="1140" height="1180.29" filterUnits="userSpaceOnUse" color-interpolation-filters="sRGB">
<feFlood flood-opacity="0" result="BackgroundImageFix"/>
<feBlend mode="normal" in="SourceGraphic" in2="BackgroundImageFix" result="shape"/>
<feColorMatrix in="SourceAlpha" type="matrix" values="0 0 0 0 0 0 0 0 0 0 0 0 0 0 0 0 0 0 127 0" result="hardAlpha"/>
<feOffset dy="6"/>
<feGaussianBlur stdDeviation="15"/>
<feComposite in2="hardAlpha" operator="arithmetic" k2="-1" k3="1"/>
<feColorMatrix type="matrix" values="0 0 0 0 0.0468641 0 0 0 0 0.19139 0 0 0 0 0.433517 0 0 0 0.1 0"/>
<feBlend mode="normal" in2="shape" result="effect1_innerShadow_1245_57"/>
</filter>
<linearGradient id="paint0_linear_1245_57" x1="843.001" y1="436.351" x2="392.739" y2="452.896" gradientUnits="userSpaceOnUse">
<stop offset="0.326923" stop-color="#E7EEFB"/>
<stop offset="1" stop-color="#EEFEFC"/>
</linearGradient>
</defs>
</svg>
