<svg width="59" height="57" viewBox="0 0 59 57" fill="none" xmlns="http://www.w3.org/2000/svg">
<path d="M16.0521 56.9296L47.6338 42.613C53.5125 39.349 53.4969 38.189 47.4986 36.1252C44.2812 33.9458 41.0742 32.3339 37.9139 33.3081L21.2343 41.0463C16.9773 43.3462 15.8805 46.2185 15.8909 49.2867L16.0521 56.9296Z" fill="url(#paint0_linear_3_126)"/>
<path d="M25.304 13.5835C24.6699 14.3568 22.5492 17.1287 22.6428 21.151C22.6636 22.1654 22.8767 25.2938 25.1221 27.9502C27.3416 30.5765 29.9872 30.8879 36.604 32.8111C39.3328 33.6045 43.252 34.8198 47.9767 36.5723C48.3094 36.6476 49.3022 36.9138 50.0767 37.8227C51.0434 38.9525 50.9603 40.2481 50.9395 40.5243C51.2046 40.2833 51.584 39.9167 51.979 39.4246C55.1913 35.4224 55.2588 28.4022 51.8075 25.3089C50.9967 24.5858 50.5133 24.5406 46.2407 23.1295C42.7322 21.9746 39.9358 20.9753 38.1841 20.3375C33.8908 18.0828 29.5974 15.8332 25.304 13.5835Z" fill="url(#paint1_linear_3_126)"/>
<path d="M4.09717 1.53659C4.57536 1.52153 5.30825 1.50646 6.20747 1.48637C7.40815 1.46629 8.4789 1.45122 8.7128 1.45122C9.60162 1.4462 13.7546 1.43616 15.8909 3.43977C17.0085 4.48426 17.6166 5.88528 17.5802 8.75763C17.4866 15.592 17.5334 19.4536 17.601 21.7535C17.6218 22.4214 17.7361 26.0972 17.8401 31.0936C17.9129 32.9315 17.9129 32.5298 17.996 34.6188C18.1624 38.7867 18.1676 40.6196 18.3339 46.2036C18.3599 47.0773 18.4015 48.3679 18.4534 49.9447C18.443 50.0451 18.2039 52.3852 19.966 53.5954C20.7613 54.1377 21.6085 54.213 22.0295 54.218C21.411 54.7252 17.8661 57.5273 12.9802 56.9046C12.0342 56.7841 8.60364 56.3472 6.53493 53.7661C5.24068 52.1542 5.08475 49.337 4.77288 43.6978C4.70531 42.4374 4.62734 40.4087 4.59096 38.4603C4.55457 36.7128 4.55457 35.4222 4.55457 35.0908C4.54418 32.7457 4.44022 24.3848 4.09717 1.53659Z" fill="url(#paint2_linear_3_126)"/>
<path d="M52.7951 0L28.4643 11.0324C24.2125 13.8294 23.1418 15.3008 28.5995 17.5203L38.179 20.3374L47.6077 15.8933C51.8647 13.5934 52.9615 10.7211 52.9511 7.65289L52.7951 0Z" fill="url(#paint3_linear_3_126)"/>
<defs>
<linearGradient id="paint0_linear_3_126" x1="15.8093" y1="45.2125" x2="52.1376" y2="44.4534" gradientUnits="userSpaceOnUse">
<stop stop-color="#3B7CE7"/>
<stop offset="1.38522e-07" stop-color="#1864E3"/>
<stop offset="1" stop-color="#397DEE"/>
</linearGradient>
<linearGradient id="paint1_linear_3_126" x1="22.7717" y1="27.3502" x2="54.2796" y2="26.6917" gradientUnits="userSpaceOnUse">
<stop stop-color="#0C5ADB"/>
<stop offset="1" stop-color="#00368E"/>
</linearGradient>
<linearGradient id="paint2_linear_3_126" x1="4.39929" y1="29.3588" x2="21.5026" y2="29.0015" gradientUnits="userSpaceOnUse">
<stop stop-color="#0C5ADB"/>
<stop offset="1" stop-color="#0440A2"/>
</linearGradient>
<linearGradient id="paint3_linear_3_126" x1="24.7975" y1="10.5708" x2="53.0028" y2="9.98139" gradientUnits="userSpaceOnUse">
<stop stop-color="#0C5ADB"/>
<stop offset="1.38522e-07" stop-color="#4184F3"/>
<stop offset="1" stop-color="#3D81F0"/>
</linearGradient>
</defs>
</svg>
