<svg width="33" height="28" viewBox="0 0 33 28" fill="none" xmlns="http://www.w3.org/2000/svg">
<path d="M23.4409 8.52149C23.4642 8.54429 23.4982 8.55861 23.5366 8.56191C26.1376 8.80173 28.7439 9.03717 31.3557 9.26823C32.0484 9.3302 32.5339 9.6128 32.812 10.116C33.1618 10.7496 33.0146 11.5317 32.4724 12.0066C30.4923 13.7433 28.5145 15.4823 26.5391 17.2236C26.3946 17.351 26.3378 17.486 26.3687 17.6288C26.9016 20.0836 27.4472 22.5353 28.0055 24.984C28.0841 25.3296 28.1688 25.7035 28.1315 26.039C28.0398 26.8746 27.2496 27.5122 26.4121 27.3697C26.2159 27.3361 25.935 27.2101 25.5695 26.9918C23.3918 25.689 21.2071 24.3747 19.0153 23.049C18.9508 23.0099 18.877 22.9893 18.8016 22.9893C18.7263 22.9893 18.6524 23.0099 18.588 23.049C17.3516 23.7974 16.0895 24.5532 14.8014 25.3165C14.7308 25.3589 14.6657 25.3889 14.6059 25.4064C14.497 25.4394 14.4416 25.399 14.4396 25.2851C14.3663 19.9317 14.2894 14.5769 14.2088 9.22073C14.2017 8.75794 14.2078 8.43964 14.3932 8.00211C15.3359 5.78178 16.2799 3.56178 17.2253 1.34212C17.3533 1.03999 17.4985 0.693399 17.7162 0.467054C18.3189 -0.156405 19.4225 -0.10285 19.9476 0.547891C20.049 0.673863 20.2352 1.05414 20.5059 1.68871C21.4648 3.94138 22.4263 6.19304 23.3905 8.44368C23.4046 8.47804 23.4214 8.50398 23.4409 8.52149Z" fill="#232323"/>
<path d="M10.1467 17.1793L8.25697 17.1803C8.23541 17.1803 8.21432 17.1865 8.19626 17.1981C8.1782 17.2098 8.16393 17.2264 8.15518 17.246L3.651 27.2112C3.63111 27.2549 3.59915 27.292 3.55894 27.3179C3.51874 27.3439 3.47198 27.3577 3.42423 27.3577L0.0912019 27.3557C0.0753358 27.3558 0.0597247 27.3517 0.0459268 27.3438C0.0321288 27.336 0.0206267 27.3246 0.0125688 27.3109C0.00451092 27.2972 0.000178914 27.2817 5.42428e-06 27.2658C-0.000168065 27.2498 0.00382286 27.2342 0.01158 27.2203L5.66977 16.9671C5.67773 16.9526 5.67965 16.9356 5.67512 16.9196C5.67059 16.9037 5.65997 16.8903 5.64558 16.8822C4.53894 16.2769 3.54114 15.4665 2.75501 14.4783C1.10546 12.4048 0.52761 9.97061 1.02147 7.17565C1.57277 4.0523 3.68729 0.83699 6.99814 0.191302C7.38516 0.115853 8.05406 0.0767819 9.00481 0.0740874C10.2976 0.0700455 11.6018 0.0703821 12.9174 0.0750977C12.9649 0.0750977 13.0106 0.0940476 13.0442 0.127778C13.0779 0.161509 13.0968 0.207258 13.0968 0.254961L13.0978 27.2395C13.0978 27.2703 13.0855 27.2999 13.0635 27.3217C13.0416 27.3435 13.0119 27.3557 12.9809 27.3557L10.31 27.3547C10.2421 27.3547 10.2082 27.3227 10.2082 27.2587L10.2052 17.2369C10.2052 17.1985 10.1857 17.1793 10.1467 17.1793ZM4.23557 10.7103C4.55909 12.5291 5.44904 14.2146 7.37105 14.645C8.10277 14.8087 9.14793 14.738 9.98346 14.739C10.0195 14.739 10.0541 14.7246 10.0797 14.699C10.1052 14.6735 10.1195 14.6388 10.1195 14.6026L10.1185 2.54165C10.1185 2.50151 10.103 2.46293 10.0751 2.43408C10.0473 2.40522 10.0094 2.38836 9.96935 2.38705C9.3485 2.36549 8.70917 2.36616 8.05137 2.38907C7.62806 2.40389 7.28001 2.46452 7.00721 2.57095C3.98158 3.7532 3.76892 8.08305 4.23557 10.7103Z" fill="#232323"/>
</svg>
