<svg width="31" height="27" viewBox="0 0 31 27" fill="none" xmlns="http://www.w3.org/2000/svg">
<path d="M7.75803 1.92481C8.28711 1.90183 8.69782 1.46852 8.67537 0.956993C8.65292 0.445463 8.20582 0.0494175 7.67674 0.0724C7.14766 0.0953826 6.73695 0.52869 6.7594 1.04022C6.78184 1.55175 7.22895 1.9478 7.75803 1.92481Z" fill="#232323"/>
<path d="M19.1858 1.92545C19.7138 1.90251 20.1237 1.46912 20.1012 0.957436C20.0788 0.445754 19.6325 0.0495474 19.1045 0.0724837C18.5765 0.0954201 18.1666 0.528814 18.1891 1.0405C18.2116 1.55218 18.6578 1.94838 19.1858 1.92545Z" fill="#232323"/>
<path d="M4.55463 4.05536C4.65906 4.10066 4.78554 4.12912 4.87702 4.17359C5.5802 4.51596 5.94594 5.08338 5.97423 5.87586C5.98176 6.08692 5.95264 6.30488 5.88688 6.52975C5.5532 7.67095 4.45268 8.21433 3.33701 8.22096C2.43893 8.22631 1.54498 8.22879 0.65516 8.22842C0.641382 8.22842 0.634586 8.22161 0.634769 8.20798L0.636974 0.547234C0.636974 0.533974 0.643495 0.527344 0.656537 0.527344C1.44275 0.530106 2.23301 0.530566 3.0273 0.528725C3.62991 0.52762 4.26008 0.648895 4.74366 1.03399C5.72955 1.8191 5.68408 3.37081 4.55298 4.0247C4.5502 4.02626 4.54792 4.02858 4.54639 4.03138C4.54486 4.03418 4.54414 4.03735 4.54431 4.04054C4.54448 4.04373 4.54554 4.04681 4.54736 4.04943C4.54919 4.05205 4.55171 4.0541 4.55463 4.05536ZM2.2026 1.86219L2.1993 3.63794C2.1993 3.64143 2.19998 3.64487 2.20131 3.64809C2.20264 3.65131 2.20459 3.65423 2.20705 3.65669C2.2095 3.65916 2.21242 3.66111 2.21563 3.66244C2.21884 3.66378 2.22228 3.66446 2.22575 3.66446L2.90606 3.66557C3.03305 3.66581 3.15884 3.64359 3.27624 3.60018C3.39364 3.55677 3.50036 3.49302 3.5903 3.41257C3.68024 3.33212 3.75164 3.23655 3.80042 3.13132C3.8492 3.02608 3.8744 2.91324 3.87459 2.79924V2.70642C3.87499 2.47624 3.77352 2.25532 3.59251 2.09223C3.4115 1.92915 3.16577 1.83726 2.90937 1.83678L2.22906 1.83567C2.22204 1.83567 2.21531 1.83847 2.21035 1.84344C2.20539 1.84841 2.2026 1.85516 2.2026 1.86219ZM2.20591 4.99655L2.19599 6.87976C2.19595 6.88305 2.19657 6.88631 2.1978 6.88936C2.19903 6.89241 2.20085 6.89518 2.20316 6.89752C2.20546 6.89986 2.20821 6.90171 2.21124 6.90298C2.21426 6.90425 2.21751 6.9049 2.22079 6.9049L3.3158 6.9107C3.45158 6.91142 3.58616 6.88909 3.71184 6.845C3.83752 6.8009 3.95185 6.7359 4.04829 6.65371C4.14473 6.57152 4.22139 6.47374 4.2739 6.36597C4.32641 6.25819 4.35373 6.14253 4.35431 6.02559L4.35487 5.8731C4.35605 5.637 4.24829 5.41 4.05529 5.24205C3.8623 5.0741 3.59986 4.97893 3.32571 4.97749L2.23071 4.97169C2.22413 4.97169 2.21783 4.97431 2.21317 4.97897C2.20852 4.98363 2.20591 4.98996 2.20591 4.99655Z" fill="#232323"/>
<path d="M11.7407 3.92516C11.7389 3.92516 11.7371 3.92551 11.7355 3.92619C11.7339 3.92687 11.7324 3.92787 11.7311 3.92913C11.7299 3.93038 11.7289 3.93188 11.7282 3.93352C11.7275 3.93516 11.7272 3.93692 11.7272 3.9387C11.7268 4.73725 11.727 5.53617 11.7277 6.33546C11.7277 6.52083 11.7338 6.76476 11.839 6.90951C12.0862 7.25013 12.7695 7.02388 13.0531 6.84653C13.0555 6.84501 13.0582 6.84402 13.061 6.84365C13.0639 6.84328 13.0667 6.84352 13.0694 6.84436C13.0721 6.8452 13.0746 6.84662 13.0767 6.84853C13.0788 6.85043 13.0804 6.85276 13.0815 6.85537L13.5119 7.88192C13.5168 7.89392 13.5172 7.90734 13.5129 7.91959C13.5085 7.93183 13.4998 7.94204 13.4884 7.94822C13.0164 8.20403 12.5254 8.31343 11.9931 8.32254C11.768 8.32641 11.602 8.32383 11.4949 8.31481C10.6545 8.24354 10.1249 7.6007 10.1301 6.76365C10.136 5.84502 10.1392 4.91138 10.1398 3.96273C10.1398 3.93676 10.1268 3.92378 10.1009 3.92378L9.15416 3.92654C9.14568 3.92654 9.13755 3.92317 9.13156 3.91716C9.12556 3.91115 9.1222 3.903 9.1222 3.8945L9.12109 2.7301C9.12109 2.71039 9.13083 2.70054 9.1503 2.70054L10.1031 2.69943C10.1129 2.69943 10.1223 2.69553 10.1292 2.68859C10.1362 2.68165 10.14 2.67223 10.14 2.66241L10.1345 1.43613C10.1345 1.4257 10.1378 1.41552 10.144 1.40715C10.1502 1.39878 10.159 1.39266 10.169 1.38972L11.693 0.95048C11.7163 0.943666 11.728 0.952413 11.728 0.976724L11.7269 2.65357C11.7269 2.68488 11.7425 2.70054 11.7737 2.70054L13.379 2.70026C13.3809 2.70027 13.3827 2.70071 13.3843 2.70154C13.386 2.70237 13.3874 2.70357 13.3885 2.70504C13.3896 2.70651 13.3903 2.70822 13.3906 2.71003C13.391 2.71183 13.3909 2.71369 13.3903 2.71545L13.0523 3.88455C13.0489 3.89625 13.0419 3.90654 13.0322 3.91386C13.0225 3.92119 13.0107 3.92516 12.9985 3.92516H11.7407Z" fill="#232323"/>
<path d="M15.5767 3.25758C15.5776 3.26041 15.5792 3.26296 15.5814 3.26499C15.5835 3.26702 15.5862 3.26846 15.589 3.26918C15.5919 3.2699 15.5949 3.26988 15.5978 3.2691C15.6006 3.26833 15.6032 3.26683 15.6054 3.26476C16.2435 2.63518 17.0277 2.32882 17.8758 2.7711C17.9464 2.80757 17.9232 2.8421 17.9001 2.89735C17.737 3.28834 17.5698 3.68476 17.3986 4.08661C17.3965 4.09158 17.3933 4.09603 17.3894 4.09969C17.3854 4.10335 17.3807 4.10613 17.3756 4.10785C17.3705 4.10957 17.365 4.11019 17.3596 4.10968C17.3543 4.10916 17.349 4.10751 17.3443 4.10485C16.9431 3.87574 16.5416 3.85548 16.1396 4.04407C15.9892 4.11451 15.8299 4.23165 15.6891 4.338C15.6769 4.34719 15.667 4.3591 15.6601 4.37282C15.6533 4.38653 15.6497 4.40166 15.6497 4.41701L15.65 8.21189C15.65 8.21621 15.6483 8.22036 15.6452 8.22341C15.6422 8.22647 15.6381 8.22819 15.6337 8.22819H14.0973C14.0902 8.22819 14.0833 8.22533 14.0782 8.22026C14.0732 8.21518 14.0703 8.20829 14.0703 8.20111V2.71668C14.0703 2.70747 14.075 2.70287 14.0844 2.70287L15.3772 2.69983C15.3841 2.69974 15.3908 2.70187 15.3963 2.7059C15.4019 2.70993 15.406 2.71565 15.4081 2.7222L15.5767 3.25758Z" fill="#232323"/>
<path d="M8.48319 2.70215H6.95228C6.9398 2.70215 6.92969 2.71229 6.92969 2.7248V8.20619C6.92969 8.21871 6.9398 8.22885 6.95228 8.22885H8.48319C8.49567 8.22885 8.50579 8.21871 8.50579 8.20619V2.7248C8.50579 2.71229 8.49567 2.70215 8.48319 2.70215Z" fill="#232323"/>
<path d="M19.9032 2.70215H18.3833C18.3679 2.70215 18.3555 2.71464 18.3555 2.73005V8.20205C18.3555 8.21746 18.3679 8.22995 18.3833 8.22995H19.9032C19.9186 8.22995 19.931 8.21746 19.931 8.20205V2.73005C19.931 2.71464 19.9186 2.70215 19.9032 2.70215Z" fill="#232323"/>
<path d="M23.3951 6.52297C23.3907 6.5204 23.3855 6.51954 23.3805 6.52056C23.3756 6.52158 23.3711 6.52441 23.3681 6.5285C22.9759 7.05724 22.5832 7.58507 22.1899 8.11198C22.1559 8.15746 22.1253 8.19282 22.0981 8.21805C22.0914 8.22428 22.0825 8.22773 22.0733 8.22773C21.5564 8.23021 21.0312 8.20811 20.516 8.23629C20.5103 8.23658 20.5046 8.23525 20.4996 8.23243C20.4947 8.22962 20.4906 8.22545 20.4879 8.22041C20.4852 8.21537 20.484 8.20966 20.4845 8.20396C20.4849 8.19826 20.4869 8.1928 20.4903 8.18822L22.5194 5.4804C22.5266 5.47072 22.5305 5.459 22.5305 5.44696C22.5306 5.43493 22.5268 5.42321 22.5197 5.41354L20.5507 2.735C20.5483 2.73179 20.5469 2.72799 20.5466 2.72403C20.5463 2.72006 20.5471 2.71608 20.5489 2.71254C20.5507 2.70899 20.5534 2.70601 20.5568 2.70393C20.5602 2.70185 20.5641 2.70075 20.568 2.70075L22.135 2.70185C22.1442 2.70185 22.1532 2.704 22.1613 2.70813C22.1695 2.71226 22.1765 2.71825 22.1819 2.72561L23.3695 4.33754C23.3731 4.34249 23.3778 4.34651 23.3833 4.34927C23.3888 4.35203 23.3948 4.35346 23.401 4.35343C23.4071 4.35341 23.4131 4.35193 23.4186 4.34912C23.424 4.34631 23.4287 4.34225 23.4323 4.33727C23.801 3.83283 24.1695 3.33198 24.5378 2.83473C24.5774 2.78132 24.6111 2.73998 24.6386 2.71069C24.6417 2.70738 24.6455 2.70474 24.6496 2.70293C24.6537 2.70113 24.6581 2.7002 24.6626 2.7002L26.2607 2.70047C26.2636 2.70046 26.2665 2.70127 26.269 2.70282C26.2715 2.70436 26.2734 2.70658 26.2747 2.70921C26.276 2.71184 26.2765 2.71477 26.2761 2.71768C26.2758 2.72058 26.2747 2.72333 26.2729 2.72561C26.2536 2.7502 26.2233 2.76953 26.2054 2.79385C25.5556 3.67214 24.9055 4.54547 24.2551 5.41382C24.2483 5.42292 24.2447 5.43397 24.2447 5.44531C24.2447 5.45666 24.2483 5.4677 24.2551 5.47681C24.8497 6.27407 25.4264 7.05273 25.9852 7.81279C26.0864 7.95055 26.194 8.07974 26.3079 8.20037C26.3101 8.20276 26.3116 8.20576 26.3122 8.209C26.3128 8.21224 26.3124 8.21557 26.3111 8.2186C26.3098 8.22162 26.3077 8.2242 26.305 8.22602C26.3022 8.22784 26.299 8.22882 26.2957 8.22883L24.7171 8.22828C24.7001 8.22827 24.6834 8.22428 24.6681 8.2166C24.6529 8.20893 24.6397 8.19779 24.6295 8.18408C24.2289 7.64281 23.8278 7.09914 23.4262 6.55308C23.4163 6.53946 23.4059 6.52942 23.3951 6.52297Z" fill="#232323"/>
<path d="M30.5719 16.994C30.0791 18.1152 29.2903 18.9339 28.2056 19.4499C27.3698 19.8477 26.4206 19.9872 25.5102 19.8579C22.6319 19.4491 20.7907 16.5888 21.5766 13.7895C21.7981 13.0007 22.2073 12.3082 22.8041 11.7121C23.4272 11.0896 24.1667 10.6711 25.0228 10.4565C25.1464 10.4256 25.2703 10.3959 25.3945 10.3676C25.9197 10.248 26.447 10.246 26.972 10.3692C27.0789 10.3945 27.1858 10.4199 27.2927 10.4455C28.9812 10.851 30.2892 12.1107 30.7808 13.7895C30.8096 13.888 30.8494 14.0458 30.9001 14.2627C31.0282 14.8119 31.0356 15.4144 30.8979 15.9628C30.8094 16.3156 30.7309 16.633 30.5719 16.994ZM28.6368 12.0627C28.1072 11.6328 27.3894 11.2897 26.6942 11.2187C26.2073 11.169 25.6223 11.1811 25.1586 11.3096C24.8636 11.3914 24.5578 11.5227 24.2413 11.7035C24.0756 11.798 23.9234 11.9006 23.7845 12.0113C23.1595 12.5085 22.716 13.1361 22.4539 13.8939C22.3942 14.0663 22.3511 14.2448 22.3247 14.4293C22.2348 15.0547 22.2505 15.7655 22.4693 16.3658C22.9242 17.6134 23.8804 18.5217 25.1655 18.9005C25.3181 18.9454 25.4881 18.9757 25.6752 18.9913C26.217 19.0364 26.778 19.035 27.2869 18.8701C28.049 18.6233 28.6803 18.2034 29.1807 17.6104C29.532 17.194 29.7891 16.6891 29.9484 16.1689C30.0991 15.6758 30.1093 15.1014 30.0594 14.5906C30.0399 14.3908 30.0091 14.2227 29.9668 14.0862C29.8401 13.6754 29.634 13.2149 29.3783 12.8572C29.1589 12.5509 28.9118 12.2861 28.6368 12.0627Z" fill="#232323"/>
<path d="M3.88905 23.4854C3.89163 23.4887 3.89494 23.4913 3.89871 23.4931C3.90248 23.4949 3.90662 23.4959 3.91082 23.4959L10.3276 23.4962C10.344 23.4962 10.3522 23.5043 10.3522 23.5205L10.3527 25.9868C10.3527 26.0119 10.3402 26.0244 10.3152 26.0244L0.0639713 26.0241C0.0143737 26.0241 -0.00638368 25.9996 0.00169889 25.9507C0.0716866 25.5291 0.142409 25.1388 0.213866 24.7796C0.557008 23.0586 1.35048 21.5852 2.59428 20.3596C3.53084 19.4364 4.61014 18.6985 5.66327 17.9189C5.806 17.8132 5.99924 17.6478 6.24301 17.4228C6.72631 16.9763 7.10711 16.3976 7.08093 15.7144C7.05834 15.1241 6.74587 14.6274 6.20002 14.3793C5.88425 14.2356 5.53817 14.1596 5.16178 14.1511C4.40128 14.1338 3.67817 14.2318 2.99243 14.445C2.40957 14.6263 1.84214 14.847 1.29013 15.1072C1.28732 15.1085 1.28425 15.1093 1.28114 15.1093C1.27802 15.1094 1.27493 15.1088 1.27207 15.1075C1.26921 15.1063 1.26664 15.1045 1.26452 15.1022C1.26241 15.0999 1.26081 15.0972 1.25982 15.0942L0.518065 12.8826C0.510901 12.861 0.517789 12.8458 0.538731 12.837C0.677604 12.7791 0.81611 12.7203 0.954248 12.6604C2.58215 11.9538 4.35389 11.5773 6.13279 11.6952C6.83469 11.7418 7.49406 11.9014 8.11091 12.174C8.40721 12.3047 8.69983 12.4948 8.98879 12.7441C9.46198 13.1523 9.79061 13.6535 9.97468 14.2478C10.0915 14.6251 10.1526 15.0161 10.1579 15.4208C10.1695 16.2723 9.94005 17.0464 9.46961 17.7429C9.12683 18.2507 8.716 18.6985 8.25281 19.1026C7.76584 19.5275 7.21953 19.9636 6.61389 20.411C6.32567 20.6239 5.9648 20.9113 5.53128 21.2732C4.82286 21.8646 4.196 22.5729 3.88464 23.4304C3.87656 23.4525 3.87803 23.4708 3.88905 23.4854Z" fill="#232323"/>
<path d="M16.2938 22.62C16.2915 22.6168 16.2885 22.6142 16.2851 22.6125C16.2816 22.6107 16.2778 22.6098 16.274 22.6098L9.96433 22.6112C9.95165 22.6112 9.94531 22.6048 9.94531 22.5921C9.94715 21.99 9.94715 21.3852 9.94531 20.7777C9.94504 20.7277 10.0327 20.636 10.0577 20.6039C12.3772 17.6545 14.6964 14.7048 17.0152 11.755C17.0579 11.7006 17.1097 11.705 17.1882 11.7053C17.8435 11.7071 18.4988 11.7087 19.1542 11.71C19.1632 11.71 19.1677 11.7146 19.1677 11.7238V20.2252C19.1677 20.2294 19.1691 20.2335 19.1716 20.2369C19.1742 20.2403 19.1777 20.2428 19.1818 20.2439C19.2034 20.25 19.2264 20.2531 19.2507 20.2531C19.9195 20.2518 20.5872 20.2502 21.2538 20.2484C21.2582 20.2484 21.2623 20.2501 21.2653 20.2532C21.2684 20.2563 21.2701 20.2605 21.2701 20.2649L21.2693 22.6048C21.2693 22.6057 21.2691 22.6066 21.2687 22.6075C21.2684 22.6084 21.2679 22.6091 21.2672 22.6098C21.2666 22.6104 21.2658 22.6109 21.265 22.6113C21.2642 22.6116 21.2633 22.6117 21.2624 22.6117L19.1909 22.6098C19.1877 22.6098 19.1847 22.6104 19.1818 22.6116C19.1789 22.6127 19.1763 22.6145 19.1741 22.6166C19.1719 22.6188 19.1702 22.6214 19.169 22.6243C19.1678 22.6271 19.1672 22.6302 19.1672 22.6333L19.1677 25.9969C19.1677 26.0036 19.165 26.01 19.1603 26.0147C19.1555 26.0194 19.1491 26.022 19.1424 26.022L16.3302 26.0218C16.3116 26.0218 16.3023 26.0125 16.3023 25.9939C16.3022 24.8765 16.3027 23.764 16.304 22.6562C16.304 22.6413 16.3006 22.6292 16.2938 22.62ZM16.2872 16.264C15.2822 17.602 14.2724 18.9372 13.2579 20.2696C13.2552 20.2732 13.2536 20.2775 13.2533 20.2819C13.2529 20.2863 13.2538 20.2908 13.2559 20.2947C13.258 20.2987 13.2611 20.3019 13.265 20.3042C13.2689 20.3064 13.2733 20.3074 13.2777 20.3072C13.8249 20.2746 14.3752 20.2517 14.9246 20.2506C15.374 20.2495 15.8217 20.2494 16.2679 20.2503C16.2916 20.2503 16.3034 20.2385 16.3032 20.2149C16.303 19.5634 16.3023 18.9199 16.301 18.2845C16.3004 18.0092 16.3271 17.4288 16.3809 16.5433C16.3886 16.4179 16.4148 16.2927 16.4327 16.1654C16.4334 16.1606 16.4327 16.1557 16.4308 16.1513C16.4288 16.1469 16.4256 16.1431 16.4216 16.1404C16.4176 16.1378 16.4129 16.1363 16.4081 16.1362C16.4032 16.1361 16.3985 16.1374 16.3944 16.1399C16.3451 16.1695 16.317 16.2248 16.2872 16.264Z" fill="#232323"/>
<path d="M28.3035 14.5822L28.3013 15.5002C28.3013 15.5059 28.2991 15.5113 28.2951 15.5153C28.2911 15.5193 28.2857 15.5215 28.2801 15.5215L25.6641 15.5212C25.6584 15.5212 25.653 15.519 25.6491 15.515C25.6451 15.511 25.6429 15.5056 25.6429 15.4999L25.6426 12.7849C25.6426 12.7793 25.6448 12.7739 25.6488 12.7699C25.6528 12.7659 25.6582 12.7637 25.6638 12.7637H26.6188C26.6245 12.7637 26.6298 12.7659 26.6338 12.7699C26.6378 12.7739 26.64 12.7793 26.64 12.7849L26.6395 14.54C26.6395 14.5456 26.6417 14.551 26.6457 14.555C26.6497 14.559 26.6551 14.5612 26.6607 14.5612L28.2823 14.561C28.2879 14.561 28.2933 14.5632 28.2973 14.5672C28.3013 14.5712 28.3035 14.5766 28.3035 14.5822Z" fill="#232323"/>
</svg>
