<svg width="13" height="13" viewBox="0 0 13 13" fill="none" xmlns="http://www.w3.org/2000/svg">
<path fill-rule="evenodd" clip-rule="evenodd" d="M10.728 2.24264C8.38475 -0.100602 4.58595 -0.100602 2.24271 2.24264C-0.100532 4.58588 -0.100532 8.38468 2.24271 10.7279C4.58595 13.0712 8.38475 13.0712 10.728 10.7279C13.0712 8.38468 13.0712 4.58588 10.728 2.24264ZM6.9466 4.52714C6.94879 4.4652 6.93848 4.40345 6.91628 4.34558C6.89409 4.28771 6.86046 4.2349 6.81741 4.19031C6.77437 4.14572 6.72278 4.11025 6.66573 4.08603C6.60868 4.0618 6.54733 4.04932 6.48535 4.04932C6.42337 4.04932 6.36203 4.0618 6.30497 4.08603C6.24792 4.11025 6.19634 4.14572 6.15329 4.19031C6.11024 4.2349 6.07662 4.28771 6.05442 4.34558C6.03223 4.40345 6.02191 4.4652 6.0241 4.52714L6.0241 6.02403H4.52721C4.46527 6.02184 4.40352 6.03216 4.34565 6.05435C4.28778 6.07655 4.23497 6.11017 4.19038 6.15322C4.14579 6.19626 4.11032 6.24785 4.0861 6.3049C4.06187 6.36195 4.04939 6.4233 4.04939 6.48528C4.04939 6.54726 4.06187 6.60861 4.0861 6.66566C4.11032 6.72271 4.14579 6.7743 4.19038 6.81734C4.23497 6.86039 4.28778 6.89402 4.34565 6.91621C4.40352 6.93841 4.46527 6.94872 4.52721 6.94653L6.0241 6.94653V8.44342C6.02191 8.50536 6.03223 8.56711 6.05442 8.62498C6.07662 8.68285 6.11024 8.73566 6.15329 8.78025C6.19634 8.82485 6.24792 8.86031 6.30497 8.88454C6.36203 8.90876 6.42337 8.92124 6.48535 8.92124C6.54733 8.92124 6.60868 8.90876 6.66573 8.88454C6.72278 8.86031 6.77437 8.82485 6.81742 8.78025C6.86046 8.73566 6.89409 8.68285 6.91628 8.62498C6.93848 8.56711 6.94879 8.50536 6.9466 8.44342V6.94653L8.44349 6.94653C8.50544 6.94872 8.56718 6.93841 8.62505 6.91621C8.68292 6.89402 8.73573 6.86039 8.78032 6.81734C8.82492 6.7743 8.86038 6.72271 8.88461 6.66566C8.90883 6.60861 8.92131 6.54726 8.92131 6.48528C8.92131 6.4233 8.90883 6.36195 8.88461 6.3049C8.86038 6.24785 8.82492 6.19626 8.78032 6.15322C8.73573 6.11017 8.68292 6.07655 8.62505 6.05435C8.56718 6.03216 8.50544 6.02184 8.44349 6.02403H6.9466L6.9466 4.52714Z" fill="#3A77DC"/>
</svg>
