<svg width="248" height="99" viewBox="0 0 248 99" fill="none" xmlns="http://www.w3.org/2000/svg">
<path d="M11.792 14.0557C10.083 14.0557 8.75977 14.7002 7.82227 15.9893C6.88477 17.2686 6.41602 19.0557 6.41602 21.3506C6.41602 26.126 8.20801 28.5137 11.792 28.5137C13.2959 28.5137 15.1172 28.1377 17.2559 27.3857V31.1943C15.498 31.9268 13.5352 32.293 11.3672 32.293C8.25195 32.293 5.86914 31.3506 4.21875 29.4658C2.56836 27.5713 1.74316 24.8564 1.74316 21.3213C1.74316 19.0947 2.14844 17.1465 2.95898 15.4766C3.76953 13.7969 4.93164 12.5127 6.44531 11.624C7.96875 10.7256 9.75098 10.2764 11.792 10.2764C13.8721 10.2764 15.9619 10.7793 18.0615 11.7852L16.5967 15.4766C15.7959 15.0957 14.9902 14.7637 14.1797 14.4805C13.3691 14.1973 12.5732 14.0557 11.792 14.0557ZM25.0342 23.7822C25.0342 25.4033 25.2979 26.6289 25.8252 27.459C26.3623 28.2891 27.2314 28.7041 28.4326 28.7041C29.624 28.7041 30.4785 28.2939 30.9961 27.4736C31.5234 26.6436 31.7871 25.4131 31.7871 23.7822C31.7871 22.1611 31.5234 20.9453 30.9961 20.1348C30.4688 19.3242 29.6045 18.9189 28.4033 18.9189C27.2119 18.9189 26.3525 19.3242 25.8252 20.1348C25.2979 20.9355 25.0342 22.1514 25.0342 23.7822ZM36.3574 23.7822C36.3574 26.4482 35.6543 28.5332 34.248 30.0371C32.8418 31.541 30.8838 32.293 28.374 32.293C26.8018 32.293 25.415 31.9512 24.2139 31.2676C23.0127 30.5742 22.0898 29.583 21.4453 28.2939C20.8008 27.0049 20.4785 25.501 20.4785 23.7822C20.4785 21.1064 21.1768 19.0264 22.5732 17.542C23.9697 16.0576 25.9326 15.3154 28.4619 15.3154C30.0342 15.3154 31.4209 15.6572 32.6221 16.3408C33.8232 17.0244 34.7461 18.0059 35.3906 19.2852C36.0352 20.5645 36.3574 22.0635 36.3574 23.7822ZM55.166 19.915C55.166 20.7939 54.8877 21.5459 54.3311 22.1709C53.7842 22.7861 52.9736 23.1816 51.8994 23.3574V23.4746C53.0615 23.6113 53.9795 24.0117 54.6533 24.6758C55.3369 25.3301 55.6787 26.1406 55.6787 27.1074C55.6787 28.6992 55.0537 29.915 53.8037 30.7549C52.5537 31.585 50.7666 32 48.4424 32H40.0488V15.623H48.4424C50.6885 15.623 52.3682 15.9893 53.4814 16.7217C54.6045 17.4443 55.166 18.5088 55.166 19.915ZM51.0498 26.873C51.0498 26.2285 50.8008 25.7646 50.3027 25.4814C49.8047 25.1885 49.0576 25.042 48.0615 25.042H44.5166V28.9092H48.1494C49.0967 28.9092 49.8145 28.7334 50.3027 28.3818C50.8008 28.0205 51.0498 27.5176 51.0498 26.873ZM50.6396 20.2666C50.6396 19.2705 49.8486 18.7725 48.2666 18.7725H44.5166V22.0098H47.7539C48.7012 22.0098 49.4189 21.873 49.9072 21.5996C50.3955 21.3262 50.6396 20.8818 50.6396 20.2666ZM79.8779 32H75.7031V19.0947L75.4688 20.0029C74.9414 22.0635 74.4678 23.6211 74.0479 24.6758L71.1475 32H67.9688L65.0244 24.6172C64.6045 23.543 64.1553 22.0342 63.6768 20.0908L63.3984 19.0947V32H59.2383V15.623H65.3906L68.2031 22.6104C68.4961 23.3623 68.7646 24.2266 69.0088 25.2031C69.2627 26.1797 69.4336 27.0146 69.5215 27.708C69.8438 26.2432 70.0928 25.1934 70.2686 24.5586C70.4541 23.9141 70.6543 23.3232 70.8691 22.7861C71.084 22.249 72.0557 19.8613 73.7842 15.623H79.8779V32ZM91.3623 18.4941C90.415 18.4941 89.6729 18.7969 89.1357 19.4023C88.5986 19.998 88.291 20.8477 88.2129 21.9512H94.4824C94.4629 20.8477 94.1748 19.998 93.6182 19.4023C93.0615 18.7969 92.3096 18.4941 91.3623 18.4941ZM91.9922 32.293C89.3555 32.293 87.2949 31.5654 85.8105 30.1104C84.3262 28.6553 83.584 26.5947 83.584 23.9287C83.584 21.1846 84.2676 19.0654 85.6348 17.5713C87.0117 16.0674 88.9111 15.3154 91.333 15.3154C93.6475 15.3154 95.4492 15.9746 96.7383 17.293C98.0273 18.6113 98.6719 20.4326 98.6719 22.7568V24.9248H88.1104C88.1592 26.1943 88.5352 27.1855 89.2383 27.8984C89.9414 28.6113 90.9277 28.9678 92.1973 28.9678C93.1836 28.9678 94.1162 28.8652 94.9951 28.6602C95.874 28.4551 96.792 28.1279 97.749 27.6787V31.1357C96.9678 31.5264 96.1328 31.8145 95.2441 32C94.3555 32.1953 93.2715 32.293 91.9922 32.293ZM108.955 32.293C103.857 32.293 101.309 29.4951 101.309 23.8994C101.309 21.1162 102.002 18.9922 103.389 17.5273C104.775 16.0527 106.763 15.3154 109.351 15.3154C111.245 15.3154 112.944 15.6865 114.448 16.4287L113.13 19.8857C112.427 19.6025 111.772 19.373 111.167 19.1973C110.562 19.0117 109.956 18.9189 109.351 18.9189C107.026 18.9189 105.864 20.5693 105.864 23.8701C105.864 27.0732 107.026 28.6748 109.351 28.6748C110.21 28.6748 111.006 28.5625 111.738 28.3379C112.471 28.1035 113.203 27.7422 113.936 27.2539V31.0771C113.213 31.5361 112.48 31.8535 111.738 32.0293C111.006 32.2051 110.078 32.293 108.955 32.293ZM131.294 15.623V18.9775H125.933V32H121.465V18.9775H116.089V15.623H131.294ZM138.677 15.623V22.0977C138.677 22.7812 138.564 24.4512 138.34 27.1074L145.898 15.623H151.274V32H146.953V25.4668C146.953 24.3047 147.051 22.6641 147.246 20.5449L139.717 32H134.355V15.623H138.677ZM176.616 32H172.441V19.0947L172.207 20.0029C171.68 22.0635 171.206 23.6211 170.786 24.6758L167.886 32H164.707L161.763 24.6172C161.343 23.543 160.894 22.0342 160.415 20.0908L160.137 19.0947V32H155.977V15.623H162.129L164.941 22.6104C165.234 23.3623 165.503 24.2266 165.747 25.2031C166.001 26.1797 166.172 27.0146 166.26 27.708C166.582 26.2432 166.831 25.1934 167.007 24.5586C167.192 23.9141 167.393 23.3232 167.607 22.7861C167.822 22.249 168.794 19.8613 170.522 15.623H176.616V32ZM184.878 23.7822C184.878 25.4033 185.142 26.6289 185.669 27.459C186.206 28.2891 187.075 28.7041 188.276 28.7041C189.468 28.7041 190.322 28.2939 190.84 27.4736C191.367 26.6436 191.631 25.4131 191.631 23.7822C191.631 22.1611 191.367 20.9453 190.84 20.1348C190.312 19.3242 189.448 18.9189 188.247 18.9189C187.056 18.9189 186.196 19.3242 185.669 20.1348C185.142 20.9355 184.878 22.1514 184.878 23.7822ZM196.201 23.7822C196.201 26.4482 195.498 28.5332 194.092 30.0371C192.686 31.541 190.728 32.293 188.218 32.293C186.646 32.293 185.259 31.9512 184.058 31.2676C182.856 30.5742 181.934 29.583 181.289 28.2939C180.645 27.0049 180.322 25.501 180.322 23.7822C180.322 21.1064 181.021 19.0264 182.417 17.542C183.813 16.0576 185.776 15.3154 188.306 15.3154C189.878 15.3154 191.265 15.6572 192.466 16.3408C193.667 17.0244 194.59 18.0059 195.234 19.2852C195.879 20.5645 196.201 22.0635 196.201 23.7822ZM214.336 32.293C209.238 32.293 206.689 29.4951 206.689 23.8994C206.689 21.1162 207.383 18.9922 208.77 17.5273C210.156 16.0527 212.144 15.3154 214.731 15.3154C216.626 15.3154 218.325 15.6865 219.829 16.4287L218.511 19.8857C217.808 19.6025 217.153 19.373 216.548 19.1973C215.942 19.0117 215.337 18.9189 214.731 18.9189C212.407 18.9189 211.245 20.5693 211.245 23.8701C211.245 27.0732 212.407 28.6748 214.731 28.6748C215.591 28.6748 216.387 28.5625 217.119 28.3379C217.852 28.1035 218.584 27.7422 219.316 27.2539V31.0771C218.594 31.5361 217.861 31.8535 217.119 32.0293C216.387 32.2051 215.459 32.293 214.336 32.293Z" fill="#232323"/>
<path fill-rule="evenodd" clip-rule="evenodd" d="M96.8582 73.6373C94.8945 73.6373 93.3005 75.23 93.3005 77.1922C93.3005 79.1588 94.8945 80.75 96.8582 80.75C98.8234 80.75 100.415 79.1588 100.415 77.1922C100.415 75.23 98.8234 73.6373 96.8582 73.6373ZM241.615 71.027C243.947 71.027 245.653 72.3325 246.772 73.6373V67.3335C244.939 66.0911 242.731 65.5938 240.812 65.5938C234.915 65.5938 229.791 69.8161 229.791 77.0803C229.791 84.0358 234.447 88.5697 240.903 88.5697C242.766 88.5697 244.814 88.2876 246.772 86.9548V80.7723C245.653 81.9235 243.886 83.1357 241.615 83.1357C238.14 83.1357 236.059 80.5598 236.059 77.2669C236.059 73.6962 238.264 71.027 241.615 71.027ZM230.458 66.216H223.317L216.765 75.3419V66.216H210.681L210.683 87.9481H216.765V78.6011L223.065 87.9481H230.676L222.199 76.7394L230.458 66.216ZM192.714 79.2557V66.216H186.846V87.9481H192.807L201.221 74.9077V87.9481H207.088V66.216H201.126L192.714 79.2557ZM175.082 75.9936H173.347V70.9975H175.082C177.69 70.9975 178.061 72.3928 178.061 73.4801C178.061 74.411 177.783 75.9936 175.082 75.9936ZM176.416 66.216H167.259V87.9481H173.347V80.7723H176.416C182.564 80.7723 184.334 76.4932 184.334 73.4801C184.334 70.4987 182.595 66.216 176.416 66.216ZM149.13 71.4296H153.908V87.9481H159.995V71.4296H164.775V66.216H149.13V71.4296ZM132.27 79.2557V66.216H126.404V87.9481H132.366L140.776 74.9077V87.9481H146.645V66.216H140.686L132.27 79.2557ZM114.141 83.5987H111.534V79.0368H114.141C116.067 79.0368 117.185 79.5966 117.185 81.3055C117.185 83.0424 116.037 83.5987 114.141 83.5987ZM114.733 74.6902H111.534V71.4296H121.499V66.216H105.45L105.449 87.9481L114.733 87.9481C116.314 87.9481 123.269 88.0084 123.269 81.2115C123.269 74.6594 116.378 74.6902 114.733 74.6902ZM71.394 77.0803C71.394 84.0358 76.0506 88.5697 82.5073 88.5697C84.3719 88.5697 86.4203 88.2876 88.3769 86.9548V80.7723C87.2558 81.9235 85.4866 83.1357 83.2214 83.1357C79.7433 83.1357 77.6648 80.5598 77.6648 77.2669C77.6648 73.6962 79.8682 71.027 83.2214 71.027C85.549 71.027 87.2558 72.3325 88.3769 73.6373V67.3335C86.5409 66.0911 84.3389 65.5938 82.414 65.5938C76.515 65.5938 71.394 69.8161 71.394 77.0803ZM58.6543 71.2136H61.9781V87.9481H67.5979V66.216H58.6543V71.2136Z" fill="#231F20"/>
<path fill-rule="evenodd" clip-rule="evenodd" d="M23.8925 51C22.1125 51 20.3813 51.2002 18.7133 51.5706V74.9104C18.7133 77.7705 21.0452 80.1032 23.9061 80.1032C26.7655 80.1032 29.0967 77.7705 29.0967 74.9118C29.0967 72.1644 26.95 69.9093 24.2513 69.7298V65.5735C29.2381 65.7543 33.2509 69.8798 33.2509 74.9118C33.2509 80.0579 29.0529 84.2581 23.9061 84.2581C18.7571 84.2581 14.5598 80.0579 14.5598 74.9104V52.8912C13.9699 53.1417 13.3935 53.4195 12.8287 53.718V74.9104C12.8294 81.0104 17.8061 85.9849 23.9061 85.9849C30.0068 85.9849 34.9813 81.0104 34.9813 74.9118C34.9813 68.9267 30.1941 64.0253 24.2513 63.8409V59.6859C32.4808 59.8718 39.1334 66.64 39.1334 74.9118C39.1334 83.3006 32.2927 90.1399 23.9061 90.1399C15.5173 90.1399 8.67446 83.3006 8.67446 74.9104V56.4741C3.37763 60.8544 0 67.4783 0 74.8925C0 88.0879 10.697 98.7878 23.8932 98.7878C37.0915 98.7878 47.7856 88.0879 47.7856 74.8925C47.7856 61.697 37.0915 51 23.8925 51Z" fill="#D91935"/>
</svg>
