<svg width="30" height="30" viewBox="0 0 30 30" fill="none" xmlns="http://www.w3.org/2000/svg">
<path fill-rule="evenodd" clip-rule="evenodd" d="M15 0C6.71538 0 0 6.71538 0 15C0 23.2846 6.71538 30 15 30C23.2846 30 30 23.2846 30 15C30 6.71538 23.2846 0 15 0ZM12.3538 10.7231C12.2482 10.6097 12.1208 10.5188 11.9793 10.4557C11.8378 10.3927 11.685 10.3587 11.53 10.356C11.3751 10.3533 11.2212 10.3818 11.0775 10.4398C10.9339 10.4978 10.8034 10.5842 10.6938 10.6938C10.5842 10.8034 10.4978 10.9339 10.4398 11.0775C10.3818 11.2212 10.3533 11.3751 10.356 11.53C10.3587 11.685 10.3927 11.8378 10.4557 11.9793C10.5188 12.1208 10.6097 12.2482 10.7231 12.3538L13.3692 15L10.7231 17.6462C10.6097 17.7518 10.5188 17.8792 10.4557 18.0207C10.3927 18.1622 10.3587 18.315 10.356 18.47C10.3533 18.6249 10.3818 18.7788 10.4398 18.9225C10.4978 19.0661 10.5842 19.1966 10.6938 19.3062C10.8034 19.4158 10.9339 19.5022 11.0775 19.5602C11.2212 19.6182 11.3751 19.6467 11.53 19.644C11.685 19.6413 11.8378 19.6073 11.9793 19.5443C12.1208 19.4812 12.2482 19.3903 12.3538 19.2769L15 16.6308L17.6462 19.2769C17.7518 19.3903 17.8792 19.4812 18.0207 19.5443C18.1622 19.6073 18.315 19.6413 18.47 19.644C18.6249 19.6467 18.7788 19.6182 18.9225 19.5602C19.0661 19.5022 19.1966 19.4158 19.3062 19.3062C19.4158 19.1966 19.5022 19.0661 19.5602 18.9225C19.6182 18.7788 19.6467 18.6249 19.644 18.47C19.6413 18.315 19.6073 18.1622 19.5443 18.0207C19.4812 17.8792 19.3903 17.7518 19.2769 17.6462L16.6308 15L19.2769 12.3538C19.3903 12.2482 19.4812 12.1208 19.5443 11.9793C19.6073 11.8378 19.6413 11.685 19.644 11.53C19.6467 11.3751 19.6182 11.2212 19.5602 11.0775C19.5022 10.9339 19.4158 10.8034 19.3062 10.6938C19.1966 10.5842 19.0661 10.4978 18.9225 10.4398C18.7788 10.3818 18.6249 10.3533 18.47 10.356C18.315 10.3587 18.1622 10.3927 18.0207 10.4557C17.8792 10.5188 17.7518 10.6097 17.6462 10.7231L15 13.3692L12.3538 10.7231Z" fill="#E51E21"/>
</svg>
