<svg width="247" height="48" viewBox="0 0 247 48" fill="none" xmlns="http://www.w3.org/2000/svg">
<path fill-rule="evenodd" clip-rule="evenodd" d="M96.8582 22.6373C94.8945 22.6373 93.3005 24.23 93.3005 26.1922C93.3005 28.1588 94.8945 29.75 96.8582 29.75C98.8234 29.75 100.415 28.1588 100.415 26.1922C100.415 24.23 98.8234 22.6373 96.8582 22.6373ZM241.615 20.027C243.947 20.027 245.653 21.3325 246.772 22.6373V16.3335C244.939 15.0911 242.731 14.5938 240.812 14.5938C234.915 14.5938 229.791 18.8161 229.791 26.0803C229.791 33.0358 234.447 37.5697 240.903 37.5697C242.766 37.5697 244.814 37.2876 246.772 35.9548V29.7723C245.653 30.9235 243.886 32.1357 241.615 32.1357C238.14 32.1357 236.059 29.5598 236.059 26.2669C236.059 22.6962 238.264 20.027 241.615 20.027ZM230.458 15.216H223.317L216.765 24.3419V15.216H210.681L210.683 36.9481H216.765V27.6011L223.065 36.9481H230.676L222.199 25.7394L230.458 15.216ZM192.714 28.2557V15.216H186.846V36.9481H192.807L201.221 23.9077V36.9481H207.088V15.216H201.126L192.714 28.2557ZM175.082 24.9936H173.347V19.9975H175.082C177.69 19.9975 178.061 21.3928 178.061 22.4801C178.061 23.411 177.783 24.9936 175.082 24.9936ZM176.416 15.216H167.259V36.9481H173.347V29.7723H176.416C182.564 29.7723 184.334 25.4932 184.334 22.4801C184.334 19.4987 182.595 15.216 176.416 15.216ZM149.13 20.4296H153.908V36.9481H159.995V20.4296H164.775V15.216H149.13V20.4296ZM132.27 28.2557V15.216H126.404V36.9481H132.366L140.776 23.9077V36.9481H146.645V15.216H140.686L132.27 28.2557ZM114.141 32.5987H111.534V28.0368H114.141C116.067 28.0368 117.185 28.5966 117.185 30.3055C117.185 32.0424 116.037 32.5987 114.141 32.5987ZM114.733 23.6902H111.534V20.4296H121.499V15.216H105.45L105.449 36.9481L114.733 36.9481C116.314 36.9481 123.269 37.0084 123.269 30.2115C123.269 23.6594 116.378 23.6902 114.733 23.6902ZM71.394 26.0803C71.394 33.0358 76.0506 37.5697 82.5073 37.5697C84.3719 37.5697 86.4203 37.2876 88.3769 35.9548V29.7723C87.2558 30.9235 85.4866 32.1357 83.2214 32.1357C79.7433 32.1357 77.6648 29.5598 77.6648 26.2669C77.6648 22.6962 79.8682 20.027 83.2214 20.027C85.549 20.027 87.2558 21.3325 88.3769 22.6373V16.3335C86.5409 15.0911 84.3389 14.5938 82.414 14.5938C76.515 14.5938 71.394 18.8161 71.394 26.0803ZM58.6543 20.2136H61.9781V36.9481H67.5979V15.216H58.6543V20.2136Z" fill="#231F20"/>
<path fill-rule="evenodd" clip-rule="evenodd" d="M23.8925 0C22.1125 0 20.3813 0.200246 18.7133 0.570594V23.9104C18.7133 26.7705 21.0452 29.1032 23.9061 29.1032C26.7655 29.1032 29.0967 26.7705 29.0967 23.9118C29.0967 21.1644 26.95 18.9093 24.2513 18.7298V14.5735C29.2381 14.7543 33.2509 18.8798 33.2509 23.9118C33.2509 29.0579 29.0529 33.2581 23.9061 33.2581C18.7571 33.2581 14.5598 29.0579 14.5598 23.9104V1.89121C13.9699 2.1417 13.3935 2.41946 12.8287 2.71804V23.9104C12.8294 30.0104 17.8061 34.9849 23.9061 34.9849C30.0068 34.9849 34.9813 30.0104 34.9813 23.9118C34.9813 17.9267 30.1941 13.0253 24.2513 12.8409V8.68595C32.4808 8.87184 39.1334 15.64 39.1334 23.9118C39.1334 32.3006 32.2927 39.1399 23.9061 39.1399C15.5173 39.1399 8.67446 32.3006 8.67446 23.9104V5.47411C3.37763 9.85441 0 16.4783 0 23.8925C0 37.0879 10.697 47.7878 23.8932 47.7878C37.0915 47.7878 47.7856 37.0879 47.7856 23.8925C47.7856 10.697 37.0915 0 23.8925 0Z" fill="#D91935"/>
</svg>
