<svg width="32" height="32" viewBox="0 0 32 32" fill="none" xmlns="http://www.w3.org/2000/svg">
<mask id="mask0_3_162" style="mask-type:luminance" maskUnits="userSpaceOnUse" x="0" y="0" width="32" height="32">
<path d="M0 16C0 24.7491 7.09252 32 15.8416 32C24.5906 32 31.6832 24.7491 31.6832 16C31.6832 7.25093 24.5906 0 15.8416 0C7.09252 0 0 7.25093 0 16Z" fill="white"/>
</mask>
<g mask="url(#mask0_3_162)">
<path d="M0 15.36C0 8.11923 0 4.49885 2.22715 2.24942C4.4543 0 8.03884 0 15.2079 0H16.4752C23.6443 0 27.2289 0 29.456 2.24942C31.6832 4.49885 31.6832 8.11923 31.6832 15.36V16.64C31.6832 23.8808 31.6832 27.5012 29.456 29.7506C27.2289 32 23.6443 32 16.4752 32H15.2079C8.03884 32 4.4543 32 2.22715 29.7506C0 27.5012 0 23.8808 0 16.64V15.36Z" fill="#0077FF"/>
<path d="M16.8581 23.0534C9.637 23.0534 5.51822 18.0534 5.34659 9.7334H8.96376C9.08257 15.8401 11.7492 18.4267 13.8614 18.9601V9.7334H17.2674V15C19.3532 14.7734 21.5444 12.3734 22.2837 9.7334H25.6897C25.122 12.9867 22.7458 15.3867 21.0561 16.3734C22.7458 17.1734 25.4522 19.2667 26.4819 23.0534H22.7326C21.9273 20.5201 19.9209 18.5601 17.2674 18.2934V23.0534H16.8581Z" fill="white"/>
</g>
</svg>
